<?xml version="1.0" encoding="utf-8" standalone="no"?>
<!DOCTYPE svg PUBLIC "-//W3C//DTD SVG 1.1//EN"
  "http://www.w3.org/Graphics/SVG/1.1/DTD/svg11.dtd">
<!-- Created with matplotlib (https://matplotlib.org/) -->
<svg height="345.6pt" version="1.1" viewBox="0 0 460.8 345.6" width="460.8pt" xmlns="http://www.w3.org/2000/svg" xmlns:xlink="http://www.w3.org/1999/xlink">
 <defs>
  <style type="text/css">
*{stroke-linecap:butt;stroke-linejoin:round;}
  </style>
 </defs>
 <g id="figure_1">
  <g id="patch_1">
   <path d="M 0 345.6 
L 460.8 345.6 
L 460.8 0 
L 0 0 
z
" style="fill:#ffffff;"/>
  </g>
  <g id="axes_1">
   <g id="patch_2">
    <path d="M 57.6 307.584 
L 414.72 307.584 
L 414.72 41.472 
L 57.6 41.472 
z
" style="fill:#ffffff;"/>
   </g>
   <g id="patch_3">
    <path clip-path="url(#pd7d56780b7)" d="M 73.832727 307.584 
L 77.047129 307.584 
L 77.047129 307.562152 
L 73.832727 307.562152 
z
" style="fill:#1f77b4;"/>
   </g>
   <g id="patch_4">
    <path clip-path="url(#pd7d56780b7)" d="M 77.047129 307.584 
L 80.26153 307.584 
L 80.26153 307.562152 
L 77.047129 307.562152 
z
" style="fill:#1f77b4;"/>
   </g>
   <g id="patch_5">
    <path clip-path="url(#pd7d56780b7)" d="M 80.26153 307.584 
L 83.475932 307.584 
L 83.475932 307.540305 
L 80.26153 307.540305 
z
" style="fill:#1f77b4;"/>
   </g>
   <g id="patch_6">
    <path clip-path="url(#pd7d56780b7)" d="M 83.475932 307.584 
L 86.690333 307.584 
L 86.690333 307.584 
L 83.475932 307.584 
z
" style="fill:#1f77b4;"/>
   </g>
   <g id="patch_7">
    <path clip-path="url(#pd7d56780b7)" d="M 86.690333 307.584 
L 89.904734 307.584 
L 89.904734 307.562152 
L 86.690333 307.562152 
z
" style="fill:#1f77b4;"/>
   </g>
   <g id="patch_8">
    <path clip-path="url(#pd7d56780b7)" d="M 89.904734 307.584 
L 93.119136 307.584 
L 93.119136 307.562152 
L 89.904734 307.562152 
z
" style="fill:#1f77b4;"/>
   </g>
   <g id="patch_9">
    <path clip-path="url(#pd7d56780b7)" d="M 93.119136 307.584 
L 96.333537 307.584 
L 96.333537 307.518457 
L 93.119136 307.518457 
z
" style="fill:#1f77b4;"/>
   </g>
   <g id="patch_10">
    <path clip-path="url(#pd7d56780b7)" d="M 96.333537 307.584 
L 99.547939 307.584 
L 99.547939 307.562152 
L 96.333537 307.562152 
z
" style="fill:#1f77b4;"/>
   </g>
   <g id="patch_11">
    <path clip-path="url(#pd7d56780b7)" d="M 99.547939 307.584 
L 102.76234 307.584 
L 102.76234 307.518457 
L 99.547939 307.518457 
z
" style="fill:#1f77b4;"/>
   </g>
   <g id="patch_12">
    <path clip-path="url(#pd7d56780b7)" d="M 102.76234 307.584 
L 105.976742 307.584 
L 105.976742 307.496609 
L 102.76234 307.496609 
z
" style="fill:#1f77b4;"/>
   </g>
   <g id="patch_13">
    <path clip-path="url(#pd7d56780b7)" d="M 105.976742 307.584 
L 109.191143 307.584 
L 109.191143 307.278132 
L 105.976742 307.278132 
z
" style="fill:#1f77b4;"/>
   </g>
   <g id="patch_14">
    <path clip-path="url(#pd7d56780b7)" d="M 109.191143 307.584 
L 112.405545 307.584 
L 112.405545 307.299979 
L 109.191143 307.299979 
z
" style="fill:#1f77b4;"/>
   </g>
   <g id="patch_15">
    <path clip-path="url(#pd7d56780b7)" d="M 112.405545 307.584 
L 115.619946 307.584 
L 115.619946 307.278132 
L 112.405545 307.278132 
z
" style="fill:#1f77b4;"/>
   </g>
   <g id="patch_16">
    <path clip-path="url(#pd7d56780b7)" d="M 115.619946 307.584 
L 118.834347 307.584 
L 118.834347 307.278132 
L 115.619946 307.278132 
z
" style="fill:#1f77b4;"/>
   </g>
   <g id="patch_17">
    <path clip-path="url(#pd7d56780b7)" d="M 118.834347 307.584 
L 122.048749 307.584 
L 122.048749 306.928568 
L 118.834347 306.928568 
z
" style="fill:#1f77b4;"/>
   </g>
   <g id="patch_18">
    <path clip-path="url(#pd7d56780b7)" d="M 122.048749 307.584 
L 125.26315 307.584 
L 125.26315 306.884872 
L 122.048749 306.884872 
z
" style="fill:#1f77b4;"/>
   </g>
   <g id="patch_19">
    <path clip-path="url(#pd7d56780b7)" d="M 125.26315 307.584 
L 128.477552 307.584 
L 128.477552 306.819329 
L 125.26315 306.819329 
z
" style="fill:#1f77b4;"/>
   </g>
   <g id="patch_20">
    <path clip-path="url(#pd7d56780b7)" d="M 128.477552 307.584 
L 131.691953 307.584 
L 131.691953 305.967267 
L 128.477552 305.967267 
z
" style="fill:#1f77b4;"/>
   </g>
   <g id="patch_21">
    <path clip-path="url(#pd7d56780b7)" d="M 131.691953 307.584 
L 134.906355 307.584 
L 134.906355 305.574008 
L 131.691953 305.574008 
z
" style="fill:#1f77b4;"/>
   </g>
   <g id="patch_22">
    <path clip-path="url(#pd7d56780b7)" d="M 134.906355 307.584 
L 138.120756 307.584 
L 138.120756 305.049662 
L 134.906355 305.049662 
z
" style="fill:#1f77b4;"/>
   </g>
   <g id="patch_23">
    <path clip-path="url(#pd7d56780b7)" d="M 138.120756 307.584 
L 141.335158 307.584 
L 141.335158 304.459774 
L 138.120756 304.459774 
z
" style="fill:#1f77b4;"/>
   </g>
   <g id="patch_24">
    <path clip-path="url(#pd7d56780b7)" d="M 141.335158 307.584 
L 144.549559 307.584 
L 144.549559 303.542169 
L 141.335158 303.542169 
z
" style="fill:#1f77b4;"/>
   </g>
   <g id="patch_25">
    <path clip-path="url(#pd7d56780b7)" d="M 144.549559 307.584 
L 147.76396 307.584 
L 147.76396 301.816197 
L 144.549559 301.816197 
z
" style="fill:#1f77b4;"/>
   </g>
   <g id="patch_26">
    <path clip-path="url(#pd7d56780b7)" d="M 147.76396 307.584 
L 150.978362 307.584 
L 150.978362 300.767506 
L 147.76396 300.767506 
z
" style="fill:#1f77b4;"/>
   </g>
   <g id="patch_27">
    <path clip-path="url(#pd7d56780b7)" d="M 150.978362 307.584 
L 154.192763 307.584 
L 154.192763 298.844905 
L 150.978362 298.844905 
z
" style="fill:#1f77b4;"/>
   </g>
   <g id="patch_28">
    <path clip-path="url(#pd7d56780b7)" d="M 154.192763 307.584 
L 157.407165 307.584 
L 157.407165 296.76937 
L 154.192763 296.76937 
z
" style="fill:#1f77b4;"/>
   </g>
   <g id="patch_29">
    <path clip-path="url(#pd7d56780b7)" d="M 157.407165 307.584 
L 160.621566 307.584 
L 160.621566 293.448514 
L 157.407165 293.448514 
z
" style="fill:#1f77b4;"/>
   </g>
   <g id="patch_30">
    <path clip-path="url(#pd7d56780b7)" d="M 160.621566 307.584 
L 163.835968 307.584 
L 163.835968 290.652003 
L 160.621566 290.652003 
z
" style="fill:#1f77b4;"/>
   </g>
   <g id="patch_31">
    <path clip-path="url(#pd7d56780b7)" d="M 163.835968 307.584 
L 167.050369 307.584 
L 167.050369 286.588324 
L 163.835968 286.588324 
z
" style="fill:#1f77b4;"/>
   </g>
   <g id="patch_32">
    <path clip-path="url(#pd7d56780b7)" d="M 167.050369 307.584 
L 170.26477 307.584 
L 170.26477 281.017151 
L 167.050369 281.017151 
z
" style="fill:#1f77b4;"/>
   </g>
   <g id="patch_33">
    <path clip-path="url(#pd7d56780b7)" d="M 170.26477 307.584 
L 173.479172 307.584 
L 173.479172 275.708151 
L 170.26477 275.708151 
z
" style="fill:#1f77b4;"/>
   </g>
   <g id="patch_34">
    <path clip-path="url(#pd7d56780b7)" d="M 173.479172 307.584 
L 176.693573 307.584 
L 176.693573 268.236224 
L 173.479172 268.236224 
z
" style="fill:#1f77b4;"/>
   </g>
   <g id="patch_35">
    <path clip-path="url(#pd7d56780b7)" d="M 176.693573 307.584 
L 179.907975 307.584 
L 179.907975 260.502125 
L 176.693573 260.502125 
z
" style="fill:#1f77b4;"/>
   </g>
   <g id="patch_36">
    <path clip-path="url(#pd7d56780b7)" d="M 179.907975 307.584 
L 183.122376 307.584 
L 183.122376 251.719335 
L 179.907975 251.719335 
z
" style="fill:#1f77b4;"/>
   </g>
   <g id="patch_37">
    <path clip-path="url(#pd7d56780b7)" d="M 183.122376 307.584 
L 186.336778 307.584 
L 186.336778 241.9097 
L 183.122376 241.9097 
z
" style="fill:#1f77b4;"/>
   </g>
   <g id="patch_38">
    <path clip-path="url(#pd7d56780b7)" d="M 186.336778 307.584 
L 189.551179 307.584 
L 189.551179 232.384087 
L 186.336778 232.384087 
z
" style="fill:#1f77b4;"/>
   </g>
   <g id="patch_39">
    <path clip-path="url(#pd7d56780b7)" d="M 189.551179 307.584 
L 192.765581 307.584 
L 192.765581 216.173065 
L 189.551179 216.173065 
z
" style="fill:#1f77b4;"/>
   </g>
   <g id="patch_40">
    <path clip-path="url(#pd7d56780b7)" d="M 192.765581 307.584 
L 195.979982 307.584 
L 195.979982 208.176793 
L 192.765581 208.176793 
z
" style="fill:#1f77b4;"/>
   </g>
   <g id="patch_41">
    <path clip-path="url(#pd7d56780b7)" d="M 195.979982 307.584 
L 199.194383 307.584 
L 199.194383 192.861529 
L 195.979982 192.861529 
z
" style="fill:#1f77b4;"/>
   </g>
   <g id="patch_42">
    <path clip-path="url(#pd7d56780b7)" d="M 199.194383 307.584 
L 202.408785 307.584 
L 202.408785 176.191705 
L 199.194383 176.191705 
z
" style="fill:#1f77b4;"/>
   </g>
   <g id="patch_43">
    <path clip-path="url(#pd7d56780b7)" d="M 202.408785 307.584 
L 205.623186 307.584 
L 205.623186 160.002532 
L 202.408785 160.002532 
z
" style="fill:#1f77b4;"/>
   </g>
   <g id="patch_44">
    <path clip-path="url(#pd7d56780b7)" d="M 205.623186 307.584 
L 208.837588 307.584 
L 208.837588 143.026839 
L 205.623186 143.026839 
z
" style="fill:#1f77b4;"/>
   </g>
   <g id="patch_45">
    <path clip-path="url(#pd7d56780b7)" d="M 208.837588 307.584 
L 212.051989 307.584 
L 212.051989 129.765263 
L 208.837588 129.765263 
z
" style="fill:#1f77b4;"/>
   </g>
   <g id="patch_46">
    <path clip-path="url(#pd7d56780b7)" d="M 212.051989 307.584 
L 215.266391 307.584 
L 215.266391 117.901941 
L 212.051989 117.901941 
z
" style="fill:#1f77b4;"/>
   </g>
   <g id="patch_47">
    <path clip-path="url(#pd7d56780b7)" d="M 215.266391 307.584 
L 218.480792 307.584 
L 218.480792 102.783306 
L 215.266391 102.783306 
z
" style="fill:#1f77b4;"/>
   </g>
   <g id="patch_48">
    <path clip-path="url(#pd7d56780b7)" d="M 218.480792 307.584 
L 221.695194 307.584 
L 221.695194 93.913125 
L 218.480792 93.913125 
z
" style="fill:#1f77b4;"/>
   </g>
   <g id="patch_49">
    <path clip-path="url(#pd7d56780b7)" d="M 221.695194 307.584 
L 224.909595 307.584 
L 224.909595 82.705235 
L 221.695194 82.705235 
z
" style="fill:#1f77b4;"/>
   </g>
   <g id="patch_50">
    <path clip-path="url(#pd7d56780b7)" d="M 224.909595 307.584 
L 228.123996 307.584 
L 228.123996 83.295124 
L 224.909595 83.295124 
z
" style="fill:#1f77b4;"/>
   </g>
   <g id="patch_51">
    <path clip-path="url(#pd7d56780b7)" d="M 228.123996 307.584 
L 231.338398 307.584 
L 231.338398 73.441795 
L 228.123996 73.441795 
z
" style="fill:#1f77b4;"/>
   </g>
   <g id="patch_52">
    <path clip-path="url(#pd7d56780b7)" d="M 231.338398 307.584 
L 234.552799 307.584 
L 234.552799 -5663.730441 
L 231.338398 -5663.730441 
z
" style="fill:#1f77b4;"/>
   </g>
   <g id="patch_53">
    <path clip-path="url(#pd7d56780b7)" d="M 234.552799 307.584 
L 237.767201 307.584 
L 237.767201 65.664 
L 234.552799 65.664 
z
" style="fill:#1f77b4;"/>
   </g>
   <g id="patch_54">
    <path clip-path="url(#pd7d56780b7)" d="M 237.767201 307.584 
L 240.981602 307.584 
L 240.981602 67.848774 
L 237.767201 67.848774 
z
" style="fill:#1f77b4;"/>
   </g>
   <g id="patch_55">
    <path clip-path="url(#pd7d56780b7)" d="M 240.981602 307.584 
L 244.196004 307.584 
L 244.196004 80.411223 
L 240.981602 80.411223 
z
" style="fill:#1f77b4;"/>
   </g>
   <g id="patch_56">
    <path clip-path="url(#pd7d56780b7)" d="M 244.196004 307.584 
L 247.410405 307.584 
L 247.410405 84.9774 
L 244.196004 84.9774 
z
" style="fill:#1f77b4;"/>
   </g>
   <g id="patch_57">
    <path clip-path="url(#pd7d56780b7)" d="M 247.410405 307.584 
L 250.624806 307.584 
L 250.624806 98.566693 
L 247.410405 98.566693 
z
" style="fill:#1f77b4;"/>
   </g>
   <g id="patch_58">
    <path clip-path="url(#pd7d56780b7)" d="M 250.624806 307.584 
L 253.839208 307.584 
L 253.839208 111.63164 
L 250.624806 111.63164 
z
" style="fill:#1f77b4;"/>
   </g>
   <g id="patch_59">
    <path clip-path="url(#pd7d56780b7)" d="M 253.839208 307.584 
L 257.053609 307.584 
L 257.053609 118.098571 
L 253.839208 118.098571 
z
" style="fill:#1f77b4;"/>
   </g>
   <g id="patch_60">
    <path clip-path="url(#pd7d56780b7)" d="M 257.053609 307.584 
L 260.268011 307.584 
L 260.268011 140.863913 
L 257.053609 140.863913 
z
" style="fill:#1f77b4;"/>
   </g>
   <g id="patch_61">
    <path clip-path="url(#pd7d56780b7)" d="M 260.268011 307.584 
L 263.482412 307.584 
L 263.482412 153.863317 
L 260.268011 153.863317 
z
" style="fill:#1f77b4;"/>
   </g>
   <g id="patch_62">
    <path clip-path="url(#pd7d56780b7)" d="M 263.482412 307.584 
L 266.696814 307.584 
L 266.696814 166.687939 
L 263.482412 166.687939 
z
" style="fill:#1f77b4;"/>
   </g>
   <g id="patch_63">
    <path clip-path="url(#pd7d56780b7)" d="M 266.696814 307.584 
L 269.911215 307.584 
L 269.911215 182.964504 
L 266.696814 182.964504 
z
" style="fill:#1f77b4;"/>
   </g>
   <g id="patch_64">
    <path clip-path="url(#pd7d56780b7)" d="M 269.911215 307.584 
L 273.125617 307.584 
L 273.125617 195.65804 
L 269.911215 195.65804 
z
" style="fill:#1f77b4;"/>
   </g>
   <g id="patch_65">
    <path clip-path="url(#pd7d56780b7)" d="M 273.125617 307.584 
L 276.340018 307.584 
L 276.340018 210.383415 
L 273.125617 210.383415 
z
" style="fill:#1f77b4;"/>
   </g>
   <g id="patch_66">
    <path clip-path="url(#pd7d56780b7)" d="M 276.340018 307.584 
L 279.554419 307.584 
L 279.554419 224.103794 
L 276.340018 224.103794 
z
" style="fill:#1f77b4;"/>
   </g>
   <g id="patch_67">
    <path clip-path="url(#pd7d56780b7)" d="M 279.554419 307.584 
L 282.768821 307.584 
L 282.768821 234.721795 
L 279.554419 234.721795 
z
" style="fill:#1f77b4;"/>
   </g>
   <g id="patch_68">
    <path clip-path="url(#pd7d56780b7)" d="M 282.768821 307.584 
L 285.983222 307.584 
L 285.983222 245.842293 
L 282.768821 245.842293 
z
" style="fill:#1f77b4;"/>
   </g>
   <g id="patch_69">
    <path clip-path="url(#pd7d56780b7)" d="M 285.983222 307.584 
L 289.197624 307.584 
L 289.197624 255.586384 
L 285.983222 255.586384 
z
" style="fill:#1f77b4;"/>
   </g>
   <g id="patch_70">
    <path clip-path="url(#pd7d56780b7)" d="M 289.197624 307.584 
L 292.412025 307.584 
L 292.412025 263.757438 
L 289.197624 263.757438 
z
" style="fill:#1f77b4;"/>
   </g>
   <g id="patch_71">
    <path clip-path="url(#pd7d56780b7)" d="M 292.412025 307.584 
L 295.626427 307.584 
L 295.626427 269.940348 
L 292.412025 269.940348 
z
" style="fill:#1f77b4;"/>
   </g>
   <g id="patch_72">
    <path clip-path="url(#pd7d56780b7)" d="M 295.626427 307.584 
L 298.840828 307.584 
L 298.840828 277.718143 
L 295.626427 277.718143 
z
" style="fill:#1f77b4;"/>
   </g>
   <g id="patch_73">
    <path clip-path="url(#pd7d56780b7)" d="M 298.840828 307.584 
L 302.05523 307.584 
L 302.05523 282.153233 
L 298.840828 282.153233 
z
" style="fill:#1f77b4;"/>
   </g>
   <g id="patch_74">
    <path clip-path="url(#pd7d56780b7)" d="M 302.05523 307.584 
L 305.269631 307.584 
L 305.269631 286.522781 
L 302.05523 286.522781 
z
" style="fill:#1f77b4;"/>
   </g>
   <g id="patch_75">
    <path clip-path="url(#pd7d56780b7)" d="M 305.269631 307.584 
L 308.484032 307.584 
L 308.484032 291.54776 
L 305.269631 291.54776 
z
" style="fill:#1f77b4;"/>
   </g>
   <g id="patch_76">
    <path clip-path="url(#pd7d56780b7)" d="M 308.484032 307.584 
L 311.698434 307.584 
L 311.698434 294.715682 
L 308.484032 294.715682 
z
" style="fill:#1f77b4;"/>
   </g>
   <g id="patch_77">
    <path clip-path="url(#pd7d56780b7)" d="M 311.698434 307.584 
L 314.912835 307.584 
L 314.912835 298.255016 
L 311.698434 298.255016 
z
" style="fill:#1f77b4;"/>
   </g>
   <g id="patch_78">
    <path clip-path="url(#pd7d56780b7)" d="M 314.912835 307.584 
L 318.127237 307.584 
L 318.127237 299.28186 
L 314.912835 299.28186 
z
" style="fill:#1f77b4;"/>
   </g>
   <g id="patch_79">
    <path clip-path="url(#pd7d56780b7)" d="M 318.127237 307.584 
L 321.341638 307.584 
L 321.341638 301.554024 
L 318.127237 301.554024 
z
" style="fill:#1f77b4;"/>
   </g>
   <g id="patch_80">
    <path clip-path="url(#pd7d56780b7)" d="M 321.341638 307.584 
L 324.55604 307.584 
L 324.55604 302.668259 
L 321.341638 302.668259 
z
" style="fill:#1f77b4;"/>
   </g>
   <g id="patch_81">
    <path clip-path="url(#pd7d56780b7)" d="M 324.55604 307.584 
L 327.770441 307.584 
L 327.770441 303.629559 
L 324.55604 303.629559 
z
" style="fill:#1f77b4;"/>
   </g>
   <g id="patch_82">
    <path clip-path="url(#pd7d56780b7)" d="M 327.770441 307.584 
L 330.984842 307.584 
L 330.984842 304.765642 
L 327.770441 304.765642 
z
" style="fill:#1f77b4;"/>
   </g>
   <g id="patch_83">
    <path clip-path="url(#pd7d56780b7)" d="M 330.984842 307.584 
L 334.199244 307.584 
L 334.199244 305.595856 
L 330.984842 305.595856 
z
" style="fill:#1f77b4;"/>
   </g>
   <g id="patch_84">
    <path clip-path="url(#pd7d56780b7)" d="M 334.199244 307.584 
L 337.413645 307.584 
L 337.413645 305.74879 
L 334.199244 305.74879 
z
" style="fill:#1f77b4;"/>
   </g>
   <g id="patch_85">
    <path clip-path="url(#pd7d56780b7)" d="M 337.413645 307.584 
L 340.628047 307.584 
L 340.628047 306.513461 
L 337.413645 306.513461 
z
" style="fill:#1f77b4;"/>
   </g>
   <g id="patch_86">
    <path clip-path="url(#pd7d56780b7)" d="M 340.628047 307.584 
L 343.842448 307.584 
L 343.842448 306.382374 
L 340.628047 306.382374 
z
" style="fill:#1f77b4;"/>
   </g>
   <g id="patch_87">
    <path clip-path="url(#pd7d56780b7)" d="M 343.842448 307.584 
L 347.05685 307.584 
L 347.05685 307.037807 
L 343.842448 307.037807 
z
" style="fill:#1f77b4;"/>
   </g>
   <g id="patch_88">
    <path clip-path="url(#pd7d56780b7)" d="M 347.05685 307.584 
L 350.271251 307.584 
L 350.271251 307.168893 
L 347.05685 307.168893 
z
" style="fill:#1f77b4;"/>
   </g>
   <g id="patch_89">
    <path clip-path="url(#pd7d56780b7)" d="M 350.271251 307.584 
L 353.485653 307.584 
L 353.485653 307.081502 
L 350.271251 307.081502 
z
" style="fill:#1f77b4;"/>
   </g>
   <g id="patch_90">
    <path clip-path="url(#pd7d56780b7)" d="M 353.485653 307.584 
L 356.700054 307.584 
L 356.700054 307.321827 
L 353.485653 307.321827 
z
" style="fill:#1f77b4;"/>
   </g>
   <g id="patch_91">
    <path clip-path="url(#pd7d56780b7)" d="M 356.700054 307.584 
L 359.914455 307.584 
L 359.914455 307.365523 
L 356.700054 307.365523 
z
" style="fill:#1f77b4;"/>
   </g>
   <g id="patch_92">
    <path clip-path="url(#pd7d56780b7)" d="M 359.914455 307.584 
L 363.128857 307.584 
L 363.128857 307.234436 
L 359.914455 307.234436 
z
" style="fill:#1f77b4;"/>
   </g>
   <g id="patch_93">
    <path clip-path="url(#pd7d56780b7)" d="M 363.128857 307.584 
L 366.343258 307.584 
L 366.343258 307.496609 
L 363.128857 307.496609 
z
" style="fill:#1f77b4;"/>
   </g>
   <g id="patch_94">
    <path clip-path="url(#pd7d56780b7)" d="M 366.343258 307.584 
L 369.55766 307.584 
L 369.55766 307.540305 
L 366.343258 307.540305 
z
" style="fill:#1f77b4;"/>
   </g>
   <g id="patch_95">
    <path clip-path="url(#pd7d56780b7)" d="M 369.55766 307.584 
L 372.772061 307.584 
L 372.772061 307.496609 
L 369.55766 307.496609 
z
" style="fill:#1f77b4;"/>
   </g>
   <g id="patch_96">
    <path clip-path="url(#pd7d56780b7)" d="M 372.772061 307.584 
L 375.986463 307.584 
L 375.986463 307.474761 
L 372.772061 307.474761 
z
" style="fill:#1f77b4;"/>
   </g>
   <g id="patch_97">
    <path clip-path="url(#pd7d56780b7)" d="M 375.986463 307.584 
L 379.200864 307.584 
L 379.200864 307.562152 
L 375.986463 307.562152 
z
" style="fill:#1f77b4;"/>
   </g>
   <g id="patch_98">
    <path clip-path="url(#pd7d56780b7)" d="M 379.200864 307.584 
L 382.415266 307.584 
L 382.415266 307.584 
L 379.200864 307.584 
z
" style="fill:#1f77b4;"/>
   </g>
   <g id="patch_99">
    <path clip-path="url(#pd7d56780b7)" d="M 382.415266 307.584 
L 385.629667 307.584 
L 385.629667 307.562152 
L 382.415266 307.562152 
z
" style="fill:#1f77b4;"/>
   </g>
   <g id="patch_100">
    <path clip-path="url(#pd7d56780b7)" d="M 385.629667 307.584 
L 388.844068 307.584 
L 388.844068 307.562152 
L 385.629667 307.562152 
z
" style="fill:#1f77b4;"/>
   </g>
   <g id="patch_101">
    <path clip-path="url(#pd7d56780b7)" d="M 388.844068 307.584 
L 392.05847 307.584 
L 392.05847 307.540305 
L 388.844068 307.540305 
z
" style="fill:#1f77b4;"/>
   </g>
   <g id="patch_102">
    <path clip-path="url(#pd7d56780b7)" d="M 392.05847 307.584 
L 395.272871 307.584 
L 395.272871 307.584 
L 392.05847 307.584 
z
" style="fill:#1f77b4;"/>
   </g>
   <g id="patch_103">
    <path clip-path="url(#pd7d56780b7)" d="M 395.272871 307.584 
L 398.487273 307.584 
L 398.487273 307.562152 
L 395.272871 307.562152 
z
" style="fill:#1f77b4;"/>
   </g>
   <g id="matplotlib.axis_1">
    <g id="xtick_1">
     <g id="line2d_1">
      <defs>
       <path d="M 0 0 
L 0 3.5 
" id="m58d1171c1b" style="stroke:#000000;stroke-width:0.8;"/>
      </defs>
      <g>
       <use style="stroke:#000000;stroke-width:0.8;" x="96.355538" xlink:href="#m58d1171c1b" y="307.584"/>
      </g>
     </g>
     <g id="text_1">
      <!-- −0.006 -->
      <defs>
       <path d="M 10.59375 35.5 
L 73.1875 35.5 
L 73.1875 27.203125 
L 10.59375 27.203125 
z
" id="DejaVuSans-8722"/>
       <path d="M 31.78125 66.40625 
Q 24.171875 66.40625 20.328125 58.90625 
Q 16.5 51.421875 16.5 36.375 
Q 16.5 21.390625 20.328125 13.890625 
Q 24.171875 6.390625 31.78125 6.390625 
Q 39.453125 6.390625 43.28125 13.890625 
Q 47.125 21.390625 47.125 36.375 
Q 47.125 51.421875 43.28125 58.90625 
Q 39.453125 66.40625 31.78125 66.40625 
z
M 31.78125 74.21875 
Q 44.046875 74.21875 50.515625 64.515625 
Q 56.984375 54.828125 56.984375 36.375 
Q 56.984375 17.96875 50.515625 8.265625 
Q 44.046875 -1.421875 31.78125 -1.421875 
Q 19.53125 -1.421875 13.0625 8.265625 
Q 6.59375 17.96875 6.59375 36.375 
Q 6.59375 54.828125 13.0625 64.515625 
Q 19.53125 74.21875 31.78125 74.21875 
z
" id="DejaVuSans-48"/>
       <path d="M 10.6875 12.40625 
L 21 12.40625 
L 21 0 
L 10.6875 0 
z
" id="DejaVuSans-46"/>
       <path d="M 33.015625 40.375 
Q 26.375 40.375 22.484375 35.828125 
Q 18.609375 31.296875 18.609375 23.390625 
Q 18.609375 15.53125 22.484375 10.953125 
Q 26.375 6.390625 33.015625 6.390625 
Q 39.65625 6.390625 43.53125 10.953125 
Q 47.40625 15.53125 47.40625 23.390625 
Q 47.40625 31.296875 43.53125 35.828125 
Q 39.65625 40.375 33.015625 40.375 
z
M 52.59375 71.296875 
L 52.59375 62.3125 
Q 48.875 64.0625 45.09375 64.984375 
Q 41.3125 65.921875 37.59375 65.921875 
Q 27.828125 65.921875 22.671875 59.328125 
Q 17.53125 52.734375 16.796875 39.40625 
Q 19.671875 43.65625 24.015625 45.921875 
Q 28.375 48.1875 33.59375 48.1875 
Q 44.578125 48.1875 50.953125 41.515625 
Q 57.328125 34.859375 57.328125 23.390625 
Q 57.328125 12.15625 50.6875 5.359375 
Q 44.046875 -1.421875 33.015625 -1.421875 
Q 20.359375 -1.421875 13.671875 8.265625 
Q 6.984375 17.96875 6.984375 36.375 
Q 6.984375 53.65625 15.1875 63.9375 
Q 23.390625 74.21875 37.203125 74.21875 
Q 40.921875 74.21875 44.703125 73.484375 
Q 48.484375 72.75 52.59375 71.296875 
z
" id="DejaVuSans-54"/>
      </defs>
      <g transform="translate(77.851632 322.182437)scale(0.1 -0.1)">
       <use xlink:href="#DejaVuSans-8722"/>
       <use x="83.789062" xlink:href="#DejaVuSans-48"/>
       <use x="147.412109" xlink:href="#DejaVuSans-46"/>
       <use x="179.199219" xlink:href="#DejaVuSans-48"/>
       <use x="242.822266" xlink:href="#DejaVuSans-48"/>
       <use x="306.445312" xlink:href="#DejaVuSans-54"/>
      </g>
     </g>
    </g>
    <g id="xtick_2">
     <g id="line2d_2">
      <g>
       <use style="stroke:#000000;stroke-width:0.8;" x="142.227202" xlink:href="#m58d1171c1b" y="307.584"/>
      </g>
     </g>
     <g id="text_2">
      <!-- −0.004 -->
      <defs>
       <path d="M 37.796875 64.3125 
L 12.890625 25.390625 
L 37.796875 25.390625 
z
M 35.203125 72.90625 
L 47.609375 72.90625 
L 47.609375 25.390625 
L 58.015625 25.390625 
L 58.015625 17.1875 
L 47.609375 17.1875 
L 47.609375 0 
L 37.796875 0 
L 37.796875 17.1875 
L 4.890625 17.1875 
L 4.890625 26.703125 
z
" id="DejaVuSans-52"/>
      </defs>
      <g transform="translate(123.723296 322.182437)scale(0.1 -0.1)">
       <use xlink:href="#DejaVuSans-8722"/>
       <use x="83.789062" xlink:href="#DejaVuSans-48"/>
       <use x="147.412109" xlink:href="#DejaVuSans-46"/>
       <use x="179.199219" xlink:href="#DejaVuSans-48"/>
       <use x="242.822266" xlink:href="#DejaVuSans-48"/>
       <use x="306.445312" xlink:href="#DejaVuSans-52"/>
      </g>
     </g>
    </g>
    <g id="xtick_3">
     <g id="line2d_3">
      <g>
       <use style="stroke:#000000;stroke-width:0.8;" x="188.098866" xlink:href="#m58d1171c1b" y="307.584"/>
      </g>
     </g>
     <g id="text_3">
      <!-- −0.002 -->
      <defs>
       <path d="M 19.1875 8.296875 
L 53.609375 8.296875 
L 53.609375 0 
L 7.328125 0 
L 7.328125 8.296875 
Q 12.9375 14.109375 22.625 23.890625 
Q 32.328125 33.6875 34.8125 36.53125 
Q 39.546875 41.84375 41.421875 45.53125 
Q 43.3125 49.21875 43.3125 52.78125 
Q 43.3125 58.59375 39.234375 62.25 
Q 35.15625 65.921875 28.609375 65.921875 
Q 23.96875 65.921875 18.8125 64.3125 
Q 13.671875 62.703125 7.8125 59.421875 
L 7.8125 69.390625 
Q 13.765625 71.78125 18.9375 73 
Q 24.125 74.21875 28.421875 74.21875 
Q 39.75 74.21875 46.484375 68.546875 
Q 53.21875 62.890625 53.21875 53.421875 
Q 53.21875 48.921875 51.53125 44.890625 
Q 49.859375 40.875 45.40625 35.40625 
Q 44.1875 33.984375 37.640625 27.21875 
Q 31.109375 20.453125 19.1875 8.296875 
z
" id="DejaVuSans-50"/>
      </defs>
      <g transform="translate(169.59496 322.182437)scale(0.1 -0.1)">
       <use xlink:href="#DejaVuSans-8722"/>
       <use x="83.789062" xlink:href="#DejaVuSans-48"/>
       <use x="147.412109" xlink:href="#DejaVuSans-46"/>
       <use x="179.199219" xlink:href="#DejaVuSans-48"/>
       <use x="242.822266" xlink:href="#DejaVuSans-48"/>
       <use x="306.445312" xlink:href="#DejaVuSans-50"/>
      </g>
     </g>
    </g>
    <g id="xtick_4">
     <g id="line2d_4">
      <g>
       <use style="stroke:#000000;stroke-width:0.8;" x="233.97053" xlink:href="#m58d1171c1b" y="307.584"/>
      </g>
     </g>
     <g id="text_4">
      <!-- 0.000 -->
      <g transform="translate(219.656468 322.182437)scale(0.1 -0.1)">
       <use xlink:href="#DejaVuSans-48"/>
       <use x="63.623047" xlink:href="#DejaVuSans-46"/>
       <use x="95.410156" xlink:href="#DejaVuSans-48"/>
       <use x="159.033203" xlink:href="#DejaVuSans-48"/>
       <use x="222.65625" xlink:href="#DejaVuSans-48"/>
      </g>
     </g>
    </g>
    <g id="xtick_5">
     <g id="line2d_5">
      <g>
       <use style="stroke:#000000;stroke-width:0.8;" x="279.842195" xlink:href="#m58d1171c1b" y="307.584"/>
      </g>
     </g>
     <g id="text_5">
      <!-- 0.002 -->
      <g transform="translate(265.528132 322.182437)scale(0.1 -0.1)">
       <use xlink:href="#DejaVuSans-48"/>
       <use x="63.623047" xlink:href="#DejaVuSans-46"/>
       <use x="95.410156" xlink:href="#DejaVuSans-48"/>
       <use x="159.033203" xlink:href="#DejaVuSans-48"/>
       <use x="222.65625" xlink:href="#DejaVuSans-50"/>
      </g>
     </g>
    </g>
    <g id="xtick_6">
     <g id="line2d_6">
      <g>
       <use style="stroke:#000000;stroke-width:0.8;" x="325.713859" xlink:href="#m58d1171c1b" y="307.584"/>
      </g>
     </g>
     <g id="text_6">
      <!-- 0.004 -->
      <g transform="translate(311.399796 322.182437)scale(0.1 -0.1)">
       <use xlink:href="#DejaVuSans-48"/>
       <use x="63.623047" xlink:href="#DejaVuSans-46"/>
       <use x="95.410156" xlink:href="#DejaVuSans-48"/>
       <use x="159.033203" xlink:href="#DejaVuSans-48"/>
       <use x="222.65625" xlink:href="#DejaVuSans-52"/>
      </g>
     </g>
    </g>
    <g id="xtick_7">
     <g id="line2d_7">
      <g>
       <use style="stroke:#000000;stroke-width:0.8;" x="371.585523" xlink:href="#m58d1171c1b" y="307.584"/>
      </g>
     </g>
     <g id="text_7">
      <!-- 0.006 -->
      <g transform="translate(357.271461 322.182437)scale(0.1 -0.1)">
       <use xlink:href="#DejaVuSans-48"/>
       <use x="63.623047" xlink:href="#DejaVuSans-46"/>
       <use x="95.410156" xlink:href="#DejaVuSans-48"/>
       <use x="159.033203" xlink:href="#DejaVuSans-48"/>
       <use x="222.65625" xlink:href="#DejaVuSans-54"/>
      </g>
     </g>
    </g>
    <g id="text_8">
     <!-- $\Delta x$ -->
     <defs>
      <path d="M 34.1875 63.1875 
L 14.15625 8.203125 
L 54.25 8.203125 
z
M 0.78125 0 
L 28.609375 72.90625 
L 39.796875 72.90625 
L 67.578125 0 
z
" id="DejaVuSans-916"/>
      <path d="M 60.015625 54.6875 
L 34.90625 27.875 
L 50.296875 0 
L 39.984375 0 
L 28.421875 21.6875 
L 8.296875 0 
L -2.59375 0 
L 24.3125 28.8125 
L 10.015625 54.6875 
L 20.3125 54.6875 
L 30.8125 34.90625 
L 49.125 54.6875 
z
" id="DejaVuSans-Oblique-120"/>
     </defs>
     <g transform="translate(229.76 335.860562)scale(0.1 -0.1)">
      <use transform="translate(0 0.09375)" xlink:href="#DejaVuSans-916"/>
      <use transform="translate(68.408203 0.09375)" xlink:href="#DejaVuSans-Oblique-120"/>
     </g>
    </g>
   </g>
   <g id="matplotlib.axis_2">
    <g id="ytick_1">
     <g id="line2d_8">
      <defs>
       <path d="M 0 0 
L -3.5 0 
" id="mc03451b39a" style="stroke:#000000;stroke-width:0.8;"/>
      </defs>
      <g>
       <use style="stroke:#000000;stroke-width:0.8;" x="57.6" xlink:href="#mc03451b39a" y="307.584"/>
      </g>
     </g>
     <g id="text_9">
      <!-- 0 -->
      <g transform="translate(44.2375 311.383219)scale(0.1 -0.1)">
       <use xlink:href="#DejaVuSans-48"/>
      </g>
     </g>
    </g>
    <g id="ytick_2">
     <g id="line2d_9">
      <g>
       <use style="stroke:#000000;stroke-width:0.8;" x="57.6" xlink:href="#mc03451b39a" y="275.477633"/>
      </g>
     </g>
     <g id="text_10">
      <!-- 20 -->
      <g transform="translate(37.875 279.276851)scale(0.1 -0.1)">
       <use xlink:href="#DejaVuSans-50"/>
       <use x="63.623047" xlink:href="#DejaVuSans-48"/>
      </g>
     </g>
    </g>
    <g id="ytick_3">
     <g id="line2d_10">
      <g>
       <use style="stroke:#000000;stroke-width:0.8;" x="57.6" xlink:href="#mc03451b39a" y="243.371265"/>
      </g>
     </g>
     <g id="text_11">
      <!-- 40 -->
      <g transform="translate(37.875 247.170484)scale(0.1 -0.1)">
       <use xlink:href="#DejaVuSans-52"/>
       <use x="63.623047" xlink:href="#DejaVuSans-48"/>
      </g>
     </g>
    </g>
    <g id="ytick_4">
     <g id="line2d_11">
      <g>
       <use style="stroke:#000000;stroke-width:0.8;" x="57.6" xlink:href="#mc03451b39a" y="211.264898"/>
      </g>
     </g>
     <g id="text_12">
      <!-- 60 -->
      <g transform="translate(37.875 215.064116)scale(0.1 -0.1)">
       <use xlink:href="#DejaVuSans-54"/>
       <use x="63.623047" xlink:href="#DejaVuSans-48"/>
      </g>
     </g>
    </g>
    <g id="ytick_5">
     <g id="line2d_12">
      <g>
       <use style="stroke:#000000;stroke-width:0.8;" x="57.6" xlink:href="#mc03451b39a" y="179.15853"/>
      </g>
     </g>
     <g id="text_13">
      <!-- 80 -->
      <defs>
       <path d="M 31.78125 34.625 
Q 24.75 34.625 20.71875 30.859375 
Q 16.703125 27.09375 16.703125 20.515625 
Q 16.703125 13.921875 20.71875 10.15625 
Q 24.75 6.390625 31.78125 6.390625 
Q 38.8125 6.390625 42.859375 10.171875 
Q 46.921875 13.96875 46.921875 20.515625 
Q 46.921875 27.09375 42.890625 30.859375 
Q 38.875 34.625 31.78125 34.625 
z
M 21.921875 38.8125 
Q 15.578125 40.375 12.03125 44.71875 
Q 8.5 49.078125 8.5 55.328125 
Q 8.5 64.0625 14.71875 69.140625 
Q 20.953125 74.21875 31.78125 74.21875 
Q 42.671875 74.21875 48.875 69.140625 
Q 55.078125 64.0625 55.078125 55.328125 
Q 55.078125 49.078125 51.53125 44.71875 
Q 48 40.375 41.703125 38.8125 
Q 48.828125 37.15625 52.796875 32.3125 
Q 56.78125 27.484375 56.78125 20.515625 
Q 56.78125 9.90625 50.3125 4.234375 
Q 43.84375 -1.421875 31.78125 -1.421875 
Q 19.734375 -1.421875 13.25 4.234375 
Q 6.78125 9.90625 6.78125 20.515625 
Q 6.78125 27.484375 10.78125 32.3125 
Q 14.796875 37.15625 21.921875 38.8125 
z
M 18.3125 54.390625 
Q 18.3125 48.734375 21.84375 45.5625 
Q 25.390625 42.390625 31.78125 42.390625 
Q 38.140625 42.390625 41.71875 45.5625 
Q 45.3125 48.734375 45.3125 54.390625 
Q 45.3125 60.0625 41.71875 63.234375 
Q 38.140625 66.40625 31.78125 66.40625 
Q 25.390625 66.40625 21.84375 63.234375 
Q 18.3125 60.0625 18.3125 54.390625 
z
" id="DejaVuSans-56"/>
      </defs>
      <g transform="translate(37.875 182.957749)scale(0.1 -0.1)">
       <use xlink:href="#DejaVuSans-56"/>
       <use x="63.623047" xlink:href="#DejaVuSans-48"/>
      </g>
     </g>
    </g>
    <g id="ytick_6">
     <g id="line2d_13">
      <g>
       <use style="stroke:#000000;stroke-width:0.8;" x="57.6" xlink:href="#mc03451b39a" y="147.052163"/>
      </g>
     </g>
     <g id="text_14">
      <!-- 100 -->
      <defs>
       <path d="M 12.40625 8.296875 
L 28.515625 8.296875 
L 28.515625 63.921875 
L 10.984375 60.40625 
L 10.984375 69.390625 
L 28.421875 72.90625 
L 38.28125 72.90625 
L 38.28125 8.296875 
L 54.390625 8.296875 
L 54.390625 0 
L 12.40625 0 
z
" id="DejaVuSans-49"/>
      </defs>
      <g transform="translate(31.5125 150.851381)scale(0.1 -0.1)">
       <use xlink:href="#DejaVuSans-49"/>
       <use x="63.623047" xlink:href="#DejaVuSans-48"/>
       <use x="127.246094" xlink:href="#DejaVuSans-48"/>
      </g>
     </g>
    </g>
    <g id="ytick_7">
     <g id="line2d_14">
      <g>
       <use style="stroke:#000000;stroke-width:0.8;" x="57.6" xlink:href="#mc03451b39a" y="114.945795"/>
      </g>
     </g>
     <g id="text_15">
      <!-- 120 -->
      <g transform="translate(31.5125 118.745014)scale(0.1 -0.1)">
       <use xlink:href="#DejaVuSans-49"/>
       <use x="63.623047" xlink:href="#DejaVuSans-50"/>
       <use x="127.246094" xlink:href="#DejaVuSans-48"/>
      </g>
     </g>
    </g>
    <g id="ytick_8">
     <g id="line2d_15">
      <g>
       <use style="stroke:#000000;stroke-width:0.8;" x="57.6" xlink:href="#mc03451b39a" y="82.839428"/>
      </g>
     </g>
     <g id="text_16">
      <!-- 140 -->
      <g transform="translate(31.5125 86.638646)scale(0.1 -0.1)">
       <use xlink:href="#DejaVuSans-49"/>
       <use x="63.623047" xlink:href="#DejaVuSans-52"/>
       <use x="127.246094" xlink:href="#DejaVuSans-48"/>
      </g>
     </g>
    </g>
    <g id="ytick_9">
     <g id="line2d_16">
      <g>
       <use style="stroke:#000000;stroke-width:0.8;" x="57.6" xlink:href="#mc03451b39a" y="50.73306"/>
      </g>
     </g>
     <g id="text_17">
      <!-- 160 -->
      <g transform="translate(31.5125 54.532279)scale(0.1 -0.1)">
       <use xlink:href="#DejaVuSans-49"/>
       <use x="63.623047" xlink:href="#DejaVuSans-54"/>
       <use x="127.246094" xlink:href="#DejaVuSans-48"/>
      </g>
     </g>
    </g>
    <g id="text_18">
     <!-- $p(\Delta x)$ -->
     <defs>
      <path d="M 49.609375 33.6875 
Q 49.609375 40.875 46.484375 44.671875 
Q 43.359375 48.484375 37.5 48.484375 
Q 33.5 48.484375 29.859375 46.4375 
Q 26.21875 44.390625 23.390625 40.484375 
Q 20.609375 36.625 18.9375 31.15625 
Q 17.28125 25.6875 17.28125 20.3125 
Q 17.28125 13.484375 20.40625 9.796875 
Q 23.53125 6.109375 29.296875 6.109375 
Q 33.546875 6.109375 37.1875 8.109375 
Q 40.828125 10.109375 43.40625 13.921875 
Q 46.1875 17.921875 47.890625 23.34375 
Q 49.609375 28.765625 49.609375 33.6875 
z
M 21.78125 46.390625 
Q 25.390625 51.125 30.296875 53.5625 
Q 35.203125 56 41.21875 56 
Q 49.609375 56 54.25 50.5 
Q 58.890625 45.015625 58.890625 35.109375 
Q 58.890625 27 56 19.65625 
Q 53.125 12.3125 47.703125 6.5 
Q 44.09375 2.640625 39.546875 0.609375 
Q 35.015625 -1.421875 29.984375 -1.421875 
Q 24.171875 -1.421875 20.21875 1 
Q 16.265625 3.421875 14.3125 8.203125 
L 8.6875 -20.796875 
L -0.296875 -20.796875 
L 14.40625 54.6875 
L 23.390625 54.6875 
z
" id="DejaVuSans-Oblique-112"/>
      <path d="M 31 75.875 
Q 24.46875 64.65625 21.28125 53.65625 
Q 18.109375 42.671875 18.109375 31.390625 
Q 18.109375 20.125 21.3125 9.0625 
Q 24.515625 -2 31 -13.1875 
L 23.1875 -13.1875 
Q 15.875 -1.703125 12.234375 9.375 
Q 8.59375 20.453125 8.59375 31.390625 
Q 8.59375 42.28125 12.203125 53.3125 
Q 15.828125 64.359375 23.1875 75.875 
z
" id="DejaVuSans-40"/>
      <path d="M 8.015625 75.875 
L 15.828125 75.875 
Q 23.140625 64.359375 26.78125 53.3125 
Q 30.421875 42.28125 30.421875 31.390625 
Q 30.421875 20.453125 26.78125 9.375 
Q 23.140625 -1.703125 15.828125 -13.1875 
L 8.015625 -13.1875 
Q 14.5 -2 17.703125 9.0625 
Q 20.90625 20.125 20.90625 31.390625 
Q 20.90625 42.671875 17.703125 53.65625 
Q 14.5 64.65625 8.015625 75.875 
z
" id="DejaVuSans-41"/>
     </defs>
     <g transform="translate(25.4125 188.028)rotate(-90)scale(0.1 -0.1)">
      <use transform="translate(0 0.125)" xlink:href="#DejaVuSans-Oblique-112"/>
      <use transform="translate(63.476562 0.125)" xlink:href="#DejaVuSans-40"/>
      <use transform="translate(102.490234 0.125)" xlink:href="#DejaVuSans-916"/>
      <use transform="translate(170.898438 0.125)" xlink:href="#DejaVuSans-Oblique-120"/>
      <use transform="translate(230.078125 0.125)" xlink:href="#DejaVuSans-41"/>
     </g>
    </g>
   </g>
   <g id="line2d_17">
    <path clip-path="url(#pd7d56780b7)" d="M 73.832727 307.58369 
L 113.300535 307.475749 
L 122.21262 307.260582 
L 128.578396 306.91263 
L 133.671016 306.416316 
L 137.490481 305.847061 
L 141.309947 305.039831 
L 143.856257 304.330634 
L 146.402567 303.452164 
L 148.948877 302.372333 
L 151.495187 301.055198 
L 154.041497 299.46105 
L 156.587807 297.546689 
L 159.134118 295.265884 
L 161.680428 292.570064 
L 164.226738 289.409261 
L 166.773048 285.73331 
L 169.319358 281.493316 
L 171.865668 276.643373 
L 174.411979 271.142512 
L 176.958289 264.956836 
L 179.504599 258.061778 
L 182.050909 250.444406 
L 184.597219 242.105682 
L 187.143529 233.062561 
L 189.68984 223.349833 
L 193.509305 207.648994 
L 197.32877 190.835981 
L 203.694545 161.393426 
L 210.060321 132.20196 
L 213.879786 115.940278 
L 216.426096 106.004314 
L 218.972406 97.001501 
L 221.518717 89.099251 
L 222.791872 85.608875 
L 224.065027 82.44884 
L 225.338182 79.634744 
L 226.611337 77.180609 
L 227.884492 75.098757 
L 229.157647 73.399713 
L 230.430802 72.092114 
L 231.703957 71.182634 
L 232.977112 70.675933 
L 234.250267 70.574609 
L 235.523422 70.879184 
L 236.796578 71.588094 
L 238.069733 72.697703 
L 239.342888 74.202337 
L 240.616043 76.094331 
L 241.889198 78.364092 
L 243.162353 81.000182 
L 244.435508 83.989415 
L 245.708663 87.316963 
L 248.254973 94.920248 
L 250.801283 103.663551 
L 253.347594 113.383014 
L 255.893904 123.902497 
L 259.713369 140.780489 
L 267.352299 176.245431 
L 272.44492 199.365778 
L 276.264385 215.662362 
L 280.08385 230.699704 
L 282.63016 239.913911 
L 285.176471 248.43067 
L 287.722781 256.228734 
L 290.269091 263.303336 
L 292.815401 269.664151 
L 295.361711 275.333057 
L 297.908021 280.341837 
L 300.454332 284.729901 
L 303.000642 288.542114 
L 305.546952 291.826796 
L 308.093262 294.633943 
L 310.639572 297.013694 
L 313.185882 299.015066 
L 315.732193 300.684949 
L 318.278503 302.067352 
L 320.824813 303.202886 
L 323.371123 304.12845 
L 325.917433 304.877094 
L 329.736898 305.731212 
L 333.556364 306.335234 
L 338.648984 306.863551 
L 345.014759 307.235453 
L 353.926845 307.466638 
L 369.204706 307.569062 
L 398.487273 307.583856 
L 398.487273 307.583856 
" style="fill:none;stroke:#ff7f0e;stroke-linecap:square;stroke-width:1.5;"/>
   </g>
   <g id="patch_104">
    <path d="M 57.6 307.584 
L 57.6 41.472 
" style="fill:none;stroke:#000000;stroke-linecap:square;stroke-linejoin:miter;stroke-width:0.8;"/>
   </g>
   <g id="patch_105">
    <path d="M 414.72 307.584 
L 414.72 41.472 
" style="fill:none;stroke:#000000;stroke-linecap:square;stroke-linejoin:miter;stroke-width:0.8;"/>
   </g>
   <g id="patch_106">
    <path d="M 57.6 307.584 
L 414.72 307.584 
" style="fill:none;stroke:#000000;stroke-linecap:square;stroke-linejoin:miter;stroke-width:0.8;"/>
   </g>
   <g id="patch_107">
    <path d="M 57.6 41.472 
L 414.72 41.472 
" style="fill:none;stroke:#000000;stroke-linecap:square;stroke-linejoin:miter;stroke-width:0.8;"/>
   </g>
  </g>
 </g>
 <defs>
  <clipPath id="pd7d56780b7">
   <rect height="266.112" width="357.12" x="57.6" y="41.472"/>
  </clipPath>
 </defs>
</svg>
