<?xml version="1.0" encoding="utf-8" standalone="no"?>
<!DOCTYPE svg PUBLIC "-//W3C//DTD SVG 1.1//EN"
  "http://www.w3.org/Graphics/SVG/1.1/DTD/svg11.dtd">
<!-- Created with matplotlib (https://matplotlib.org/) -->
<svg height="707.76pt" version="1.1" viewBox="0 0 1382.4 707.76" width="1382.4pt" xmlns="http://www.w3.org/2000/svg" xmlns:xlink="http://www.w3.org/1999/xlink">
 <defs>
  <style type="text/css">
*{stroke-linecap:butt;stroke-linejoin:round;}
  </style>
 </defs>
 <g id="figure_1">
  <g id="patch_1">
   <path d="M 0 707.76 
L 1382.4 707.76 
L 1382.4 0 
L 0 0 
z
" style="fill:#ffffff;"/>
  </g>
  <g id="axes_1">
   <g id="patch_2">
    <path d="M 172.8 629.9064 
L 1244.16 629.9064 
L 1244.16 84.9312 
L 172.8 84.9312 
z
" style="fill:#ffffff;"/>
   </g>
   <g id="patch_3">
    <path clip-path="url(#p10ddb4cf6f)" d="M 221.498182 629.9064 
L 231.141386 629.9064 
L 231.141386 629.891771 
L 221.498182 629.891771 
z
" style="fill:#1f77b4;"/>
   </g>
   <g id="patch_4">
    <path clip-path="url(#p10ddb4cf6f)" d="M 231.141386 629.9064 
L 240.78459 629.9064 
L 240.78459 629.9064 
L 231.141386 629.9064 
z
" style="fill:#1f77b4;"/>
   </g>
   <g id="patch_5">
    <path clip-path="url(#p10ddb4cf6f)" d="M 240.78459 629.9064 
L 250.427795 629.9064 
L 250.427795 629.9064 
L 240.78459 629.9064 
z
" style="fill:#1f77b4;"/>
   </g>
   <g id="patch_6">
    <path clip-path="url(#p10ddb4cf6f)" d="M 250.427795 629.9064 
L 260.070999 629.9064 
L 260.070999 629.899086 
L 250.427795 629.899086 
z
" style="fill:#1f77b4;"/>
   </g>
   <g id="patch_7">
    <path clip-path="url(#p10ddb4cf6f)" d="M 260.070999 629.9064 
L 269.714203 629.9064 
L 269.714203 629.891771 
L 260.070999 629.891771 
z
" style="fill:#1f77b4;"/>
   </g>
   <g id="patch_8">
    <path clip-path="url(#p10ddb4cf6f)" d="M 269.714203 629.9064 
L 279.357408 629.9064 
L 279.357408 629.9064 
L 269.714203 629.9064 
z
" style="fill:#1f77b4;"/>
   </g>
   <g id="patch_9">
    <path clip-path="url(#p10ddb4cf6f)" d="M 279.357408 629.9064 
L 289.000612 629.9064 
L 289.000612 629.899086 
L 279.357408 629.899086 
z
" style="fill:#1f77b4;"/>
   </g>
   <g id="patch_10">
    <path clip-path="url(#p10ddb4cf6f)" d="M 289.000612 629.9064 
L 298.643816 629.9064 
L 298.643816 629.9064 
L 289.000612 629.9064 
z
" style="fill:#1f77b4;"/>
   </g>
   <g id="patch_11">
    <path clip-path="url(#p10ddb4cf6f)" d="M 298.643816 629.9064 
L 308.287021 629.9064 
L 308.287021 629.9064 
L 298.643816 629.9064 
z
" style="fill:#1f77b4;"/>
   </g>
   <g id="patch_12">
    <path clip-path="url(#p10ddb4cf6f)" d="M 308.287021 629.9064 
L 317.930225 629.9064 
L 317.930225 629.9064 
L 308.287021 629.9064 
z
" style="fill:#1f77b4;"/>
   </g>
   <g id="patch_13">
    <path clip-path="url(#p10ddb4cf6f)" d="M 317.930225 629.9064 
L 327.573429 629.9064 
L 327.573429 629.891771 
L 317.930225 629.891771 
z
" style="fill:#1f77b4;"/>
   </g>
   <g id="patch_14">
    <path clip-path="url(#p10ddb4cf6f)" d="M 327.573429 629.9064 
L 337.216634 629.9064 
L 337.216634 629.899086 
L 327.573429 629.899086 
z
" style="fill:#1f77b4;"/>
   </g>
   <g id="patch_15">
    <path clip-path="url(#p10ddb4cf6f)" d="M 337.216634 629.9064 
L 346.859838 629.9064 
L 346.859838 629.9064 
L 337.216634 629.9064 
z
" style="fill:#1f77b4;"/>
   </g>
   <g id="patch_16">
    <path clip-path="url(#p10ddb4cf6f)" d="M 346.859838 629.9064 
L 356.503042 629.9064 
L 356.503042 629.899086 
L 346.859838 629.899086 
z
" style="fill:#1f77b4;"/>
   </g>
   <g id="patch_17">
    <path clip-path="url(#p10ddb4cf6f)" d="M 356.503042 629.9064 
L 366.146247 629.9064 
L 366.146247 629.9064 
L 356.503042 629.9064 
z
" style="fill:#1f77b4;"/>
   </g>
   <g id="patch_18">
    <path clip-path="url(#p10ddb4cf6f)" d="M 366.146247 629.9064 
L 375.789451 629.9064 
L 375.789451 629.899086 
L 366.146247 629.899086 
z
" style="fill:#1f77b4;"/>
   </g>
   <g id="patch_19">
    <path clip-path="url(#p10ddb4cf6f)" d="M 375.789451 629.9064 
L 385.432655 629.9064 
L 385.432655 629.9064 
L 375.789451 629.9064 
z
" style="fill:#1f77b4;"/>
   </g>
   <g id="patch_20">
    <path clip-path="url(#p10ddb4cf6f)" d="M 385.432655 629.9064 
L 395.07586 629.9064 
L 395.07586 629.9064 
L 385.432655 629.9064 
z
" style="fill:#1f77b4;"/>
   </g>
   <g id="patch_21">
    <path clip-path="url(#p10ddb4cf6f)" d="M 395.07586 629.9064 
L 404.719064 629.9064 
L 404.719064 629.899086 
L 395.07586 629.899086 
z
" style="fill:#1f77b4;"/>
   </g>
   <g id="patch_22">
    <path clip-path="url(#p10ddb4cf6f)" d="M 404.719064 629.9064 
L 414.362268 629.9064 
L 414.362268 629.899086 
L 404.719064 629.899086 
z
" style="fill:#1f77b4;"/>
   </g>
   <g id="patch_23">
    <path clip-path="url(#p10ddb4cf6f)" d="M 414.362268 629.9064 
L 424.005473 629.9064 
L 424.005473 629.899086 
L 414.362268 629.899086 
z
" style="fill:#1f77b4;"/>
   </g>
   <g id="patch_24">
    <path clip-path="url(#p10ddb4cf6f)" d="M 424.005473 629.9064 
L 433.648677 629.9064 
L 433.648677 629.891771 
L 424.005473 629.891771 
z
" style="fill:#1f77b4;"/>
   </g>
   <g id="patch_25">
    <path clip-path="url(#p10ddb4cf6f)" d="M 433.648677 629.9064 
L 443.291881 629.9064 
L 443.291881 629.891771 
L 433.648677 629.891771 
z
" style="fill:#1f77b4;"/>
   </g>
   <g id="patch_26">
    <path clip-path="url(#p10ddb4cf6f)" d="M 443.291881 629.9064 
L 452.935086 629.9064 
L 452.935086 629.899086 
L 443.291881 629.899086 
z
" style="fill:#1f77b4;"/>
   </g>
   <g id="patch_27">
    <path clip-path="url(#p10ddb4cf6f)" d="M 452.935086 629.9064 
L 462.57829 629.9064 
L 462.57829 629.899086 
L 452.935086 629.899086 
z
" style="fill:#1f77b4;"/>
   </g>
   <g id="patch_28">
    <path clip-path="url(#p10ddb4cf6f)" d="M 462.57829 629.9064 
L 472.221494 629.9064 
L 472.221494 629.891771 
L 462.57829 629.891771 
z
" style="fill:#1f77b4;"/>
   </g>
   <g id="patch_29">
    <path clip-path="url(#p10ddb4cf6f)" d="M 472.221494 629.9064 
L 481.864698 629.9064 
L 481.864698 629.899086 
L 472.221494 629.899086 
z
" style="fill:#1f77b4;"/>
   </g>
   <g id="patch_30">
    <path clip-path="url(#p10ddb4cf6f)" d="M 481.864698 629.9064 
L 491.507903 629.9064 
L 491.507903 629.891771 
L 481.864698 629.891771 
z
" style="fill:#1f77b4;"/>
   </g>
   <g id="patch_31">
    <path clip-path="url(#p10ddb4cf6f)" d="M 491.507903 629.9064 
L 501.151107 629.9064 
L 501.151107 629.884457 
L 491.507903 629.884457 
z
" style="fill:#1f77b4;"/>
   </g>
   <g id="patch_32">
    <path clip-path="url(#p10ddb4cf6f)" d="M 501.151107 629.9064 
L 510.794311 629.9064 
L 510.794311 629.899086 
L 501.151107 629.899086 
z
" style="fill:#1f77b4;"/>
   </g>
   <g id="patch_33">
    <path clip-path="url(#p10ddb4cf6f)" d="M 510.794311 629.9064 
L 520.437516 629.9064 
L 520.437516 629.884457 
L 510.794311 629.884457 
z
" style="fill:#1f77b4;"/>
   </g>
   <g id="patch_34">
    <path clip-path="url(#p10ddb4cf6f)" d="M 520.437516 629.9064 
L 530.08072 629.9064 
L 530.08072 629.884457 
L 520.437516 629.884457 
z
" style="fill:#1f77b4;"/>
   </g>
   <g id="patch_35">
    <path clip-path="url(#p10ddb4cf6f)" d="M 530.08072 629.9064 
L 539.723924 629.9064 
L 539.723924 629.9064 
L 530.08072 629.9064 
z
" style="fill:#1f77b4;"/>
   </g>
   <g id="patch_36">
    <path clip-path="url(#p10ddb4cf6f)" d="M 539.723924 629.9064 
L 549.367129 629.9064 
L 549.367129 629.869829 
L 539.723924 629.869829 
z
" style="fill:#1f77b4;"/>
   </g>
   <g id="patch_37">
    <path clip-path="url(#p10ddb4cf6f)" d="M 549.367129 629.9064 
L 559.010333 629.9064 
L 559.010333 629.862514 
L 549.367129 629.862514 
z
" style="fill:#1f77b4;"/>
   </g>
   <g id="patch_38">
    <path clip-path="url(#p10ddb4cf6f)" d="M 559.010333 629.9064 
L 568.653537 629.9064 
L 568.653537 629.9064 
L 559.010333 629.9064 
z
" style="fill:#1f77b4;"/>
   </g>
   <g id="patch_39">
    <path clip-path="url(#p10ddb4cf6f)" d="M 568.653537 629.9064 
L 578.296742 629.9064 
L 578.296742 629.847886 
L 568.653537 629.847886 
z
" style="fill:#1f77b4;"/>
   </g>
   <g id="patch_40">
    <path clip-path="url(#p10ddb4cf6f)" d="M 578.296742 629.9064 
L 587.939946 629.9064 
L 587.939946 629.847886 
L 578.296742 629.847886 
z
" style="fill:#1f77b4;"/>
   </g>
   <g id="patch_41">
    <path clip-path="url(#p10ddb4cf6f)" d="M 587.939946 629.9064 
L 597.58315 629.9064 
L 597.58315 629.833257 
L 587.939946 629.833257 
z
" style="fill:#1f77b4;"/>
   </g>
   <g id="patch_42">
    <path clip-path="url(#p10ddb4cf6f)" d="M 597.58315 629.9064 
L 607.226355 629.9064 
L 607.226355 629.847886 
L 597.58315 629.847886 
z
" style="fill:#1f77b4;"/>
   </g>
   <g id="patch_43">
    <path clip-path="url(#p10ddb4cf6f)" d="M 607.226355 629.9064 
L 616.869559 629.9064 
L 616.869559 629.818629 
L 607.226355 629.818629 
z
" style="fill:#1f77b4;"/>
   </g>
   <g id="patch_44">
    <path clip-path="url(#p10ddb4cf6f)" d="M 616.869559 629.9064 
L 626.512763 629.9064 
L 626.512763 629.774743 
L 616.869559 629.774743 
z
" style="fill:#1f77b4;"/>
   </g>
   <g id="patch_45">
    <path clip-path="url(#p10ddb4cf6f)" d="M 626.512763 629.9064 
L 636.155968 629.9064 
L 636.155968 629.738172 
L 626.512763 629.738172 
z
" style="fill:#1f77b4;"/>
   </g>
   <g id="patch_46">
    <path clip-path="url(#p10ddb4cf6f)" d="M 636.155968 629.9064 
L 645.799172 629.9064 
L 645.799172 629.46023 
L 636.155968 629.46023 
z
" style="fill:#1f77b4;"/>
   </g>
   <g id="patch_47">
    <path clip-path="url(#p10ddb4cf6f)" d="M 645.799172 629.9064 
L 655.442376 629.9064 
L 655.442376 629.15303 
L 645.799172 629.15303 
z
" style="fill:#1f77b4;"/>
   </g>
   <g id="patch_48">
    <path clip-path="url(#p10ddb4cf6f)" d="M 655.442376 629.9064 
L 665.085581 629.9064 
L 665.085581 628.238747 
L 655.442376 628.238747 
z
" style="fill:#1f77b4;"/>
   </g>
   <g id="patch_49">
    <path clip-path="url(#p10ddb4cf6f)" d="M 665.085581 629.9064 
L 674.728785 629.9064 
L 674.728785 625.466639 
L 665.085581 625.466639 
z
" style="fill:#1f77b4;"/>
   </g>
   <g id="patch_50">
    <path clip-path="url(#p10ddb4cf6f)" d="M 674.728785 629.9064 
L 684.371989 629.9064 
L 684.371989 614.685407 
L 674.728785 614.685407 
z
" style="fill:#1f77b4;"/>
   </g>
   <g id="patch_51">
    <path clip-path="url(#p10ddb4cf6f)" d="M 684.371989 629.9064 
L 694.015194 629.9064 
L 694.015194 557.816966 
L 684.371989 557.816966 
z
" style="fill:#1f77b4;"/>
   </g>
   <g id="patch_52">
    <path clip-path="url(#p10ddb4cf6f)" d="M 694.015194 629.9064 
L 703.658398 629.9064 
L 703.658398 264.712271 
L 694.015194 264.712271 
z
" style="fill:#1f77b4;"/>
   </g>
   <g id="patch_53">
    <path clip-path="url(#p10ddb4cf6f)" d="M 703.658398 629.9064 
L 713.301602 629.9064 
L 713.301602 -2109.770023 
L 703.658398 -2109.770023 
z
" style="fill:#1f77b4;"/>
   </g>
   <g id="patch_54">
    <path clip-path="url(#p10ddb4cf6f)" d="M 713.301602 629.9064 
L 722.944806 629.9064 
L 722.944806 134.4744 
L 713.301602 134.4744 
z
" style="fill:#1f77b4;"/>
   </g>
   <g id="patch_55">
    <path clip-path="url(#p10ddb4cf6f)" d="M 722.944806 629.9064 
L 732.588011 629.9064 
L 732.588011 522.364705 
L 722.944806 522.364705 
z
" style="fill:#1f77b4;"/>
   </g>
   <g id="patch_56">
    <path clip-path="url(#p10ddb4cf6f)" d="M 732.588011 629.9064 
L 742.231215 629.9064 
L 742.231215 608.753535 
L 732.588011 608.753535 
z
" style="fill:#1f77b4;"/>
   </g>
   <g id="patch_57">
    <path clip-path="url(#p10ddb4cf6f)" d="M 742.231215 629.9064 
L 751.874419 629.9064 
L 751.874419 624.332927 
L 742.231215 624.332927 
z
" style="fill:#1f77b4;"/>
   </g>
   <g id="patch_58">
    <path clip-path="url(#p10ddb4cf6f)" d="M 751.874419 629.9064 
L 761.517624 629.9064 
L 761.517624 627.90229 
L 751.874419 627.90229 
z
" style="fill:#1f77b4;"/>
   </g>
   <g id="patch_59">
    <path clip-path="url(#p10ddb4cf6f)" d="M 761.517624 629.9064 
L 771.160828 629.9064 
L 771.160828 629.050631 
L 761.517624 629.050631 
z
" style="fill:#1f77b4;"/>
   </g>
   <g id="patch_60">
    <path clip-path="url(#p10ddb4cf6f)" d="M 771.160828 629.9064 
L 780.804032 629.9064 
L 780.804032 629.335887 
L 771.160828 629.335887 
z
" style="fill:#1f77b4;"/>
   </g>
   <g id="patch_61">
    <path clip-path="url(#p10ddb4cf6f)" d="M 780.804032 629.9064 
L 790.447237 629.9064 
L 790.447237 629.584572 
L 780.804032 629.584572 
z
" style="fill:#1f77b4;"/>
   </g>
   <g id="patch_62">
    <path clip-path="url(#p10ddb4cf6f)" d="M 790.447237 629.9064 
L 800.090441 629.9064 
L 800.090441 629.738172 
L 790.447237 629.738172 
z
" style="fill:#1f77b4;"/>
   </g>
   <g id="patch_63">
    <path clip-path="url(#p10ddb4cf6f)" d="M 800.090441 629.9064 
L 809.733645 629.9064 
L 809.733645 629.782057 
L 800.090441 629.782057 
z
" style="fill:#1f77b4;"/>
   </g>
   <g id="patch_64">
    <path clip-path="url(#p10ddb4cf6f)" d="M 809.733645 629.9064 
L 819.37685 629.9064 
L 819.37685 629.847886 
L 809.733645 629.847886 
z
" style="fill:#1f77b4;"/>
   </g>
   <g id="patch_65">
    <path clip-path="url(#p10ddb4cf6f)" d="M 819.37685 629.9064 
L 829.020054 629.9064 
L 829.020054 629.789372 
L 819.37685 629.789372 
z
" style="fill:#1f77b4;"/>
   </g>
   <g id="patch_66">
    <path clip-path="url(#p10ddb4cf6f)" d="M 829.020054 629.9064 
L 838.663258 629.9064 
L 838.663258 629.862514 
L 829.020054 629.862514 
z
" style="fill:#1f77b4;"/>
   </g>
   <g id="patch_67">
    <path clip-path="url(#p10ddb4cf6f)" d="M 838.663258 629.9064 
L 848.306463 629.9064 
L 848.306463 629.891771 
L 838.663258 629.891771 
z
" style="fill:#1f77b4;"/>
   </g>
   <g id="patch_68">
    <path clip-path="url(#p10ddb4cf6f)" d="M 848.306463 629.9064 
L 857.949667 629.9064 
L 857.949667 629.884457 
L 848.306463 629.884457 
z
" style="fill:#1f77b4;"/>
   </g>
   <g id="patch_69">
    <path clip-path="url(#p10ddb4cf6f)" d="M 857.949667 629.9064 
L 867.592871 629.9064 
L 867.592871 629.884457 
L 857.949667 629.884457 
z
" style="fill:#1f77b4;"/>
   </g>
   <g id="patch_70">
    <path clip-path="url(#p10ddb4cf6f)" d="M 867.592871 629.9064 
L 877.236076 629.9064 
L 877.236076 629.884457 
L 867.592871 629.884457 
z
" style="fill:#1f77b4;"/>
   </g>
   <g id="patch_71">
    <path clip-path="url(#p10ddb4cf6f)" d="M 877.236076 629.9064 
L 886.87928 629.9064 
L 886.87928 629.884457 
L 877.236076 629.884457 
z
" style="fill:#1f77b4;"/>
   </g>
   <g id="patch_72">
    <path clip-path="url(#p10ddb4cf6f)" d="M 886.87928 629.9064 
L 896.522484 629.9064 
L 896.522484 629.884457 
L 886.87928 629.884457 
z
" style="fill:#1f77b4;"/>
   </g>
   <g id="patch_73">
    <path clip-path="url(#p10ddb4cf6f)" d="M 896.522484 629.9064 
L 906.165689 629.9064 
L 906.165689 629.899086 
L 896.522484 629.899086 
z
" style="fill:#1f77b4;"/>
   </g>
   <g id="patch_74">
    <path clip-path="url(#p10ddb4cf6f)" d="M 906.165689 629.9064 
L 915.808893 629.9064 
L 915.808893 629.877143 
L 906.165689 629.877143 
z
" style="fill:#1f77b4;"/>
   </g>
   <g id="patch_75">
    <path clip-path="url(#p10ddb4cf6f)" d="M 915.808893 629.9064 
L 925.452097 629.9064 
L 925.452097 629.877143 
L 915.808893 629.877143 
z
" style="fill:#1f77b4;"/>
   </g>
   <g id="patch_76">
    <path clip-path="url(#p10ddb4cf6f)" d="M 925.452097 629.9064 
L 935.095302 629.9064 
L 935.095302 629.899086 
L 925.452097 629.899086 
z
" style="fill:#1f77b4;"/>
   </g>
   <g id="patch_77">
    <path clip-path="url(#p10ddb4cf6f)" d="M 935.095302 629.9064 
L 944.738506 629.9064 
L 944.738506 629.891771 
L 935.095302 629.891771 
z
" style="fill:#1f77b4;"/>
   </g>
   <g id="patch_78">
    <path clip-path="url(#p10ddb4cf6f)" d="M 944.738506 629.9064 
L 954.38171 629.9064 
L 954.38171 629.891771 
L 944.738506 629.891771 
z
" style="fill:#1f77b4;"/>
   </g>
   <g id="patch_79">
    <path clip-path="url(#p10ddb4cf6f)" d="M 954.38171 629.9064 
L 964.024914 629.9064 
L 964.024914 629.899086 
L 954.38171 629.899086 
z
" style="fill:#1f77b4;"/>
   </g>
   <g id="patch_80">
    <path clip-path="url(#p10ddb4cf6f)" d="M 964.024914 629.9064 
L 973.668119 629.9064 
L 973.668119 629.891771 
L 964.024914 629.891771 
z
" style="fill:#1f77b4;"/>
   </g>
   <g id="patch_81">
    <path clip-path="url(#p10ddb4cf6f)" d="M 973.668119 629.9064 
L 983.311323 629.9064 
L 983.311323 629.9064 
L 973.668119 629.9064 
z
" style="fill:#1f77b4;"/>
   </g>
   <g id="patch_82">
    <path clip-path="url(#p10ddb4cf6f)" d="M 983.311323 629.9064 
L 992.954527 629.9064 
L 992.954527 629.9064 
L 983.311323 629.9064 
z
" style="fill:#1f77b4;"/>
   </g>
   <g id="patch_83">
    <path clip-path="url(#p10ddb4cf6f)" d="M 992.954527 629.9064 
L 1002.597732 629.9064 
L 1002.597732 629.891771 
L 992.954527 629.891771 
z
" style="fill:#1f77b4;"/>
   </g>
   <g id="patch_84">
    <path clip-path="url(#p10ddb4cf6f)" d="M 1002.597732 629.9064 
L 1012.240936 629.9064 
L 1012.240936 629.9064 
L 1002.597732 629.9064 
z
" style="fill:#1f77b4;"/>
   </g>
   <g id="patch_85">
    <path clip-path="url(#p10ddb4cf6f)" d="M 1012.240936 629.9064 
L 1021.88414 629.9064 
L 1021.88414 629.899086 
L 1012.240936 629.899086 
z
" style="fill:#1f77b4;"/>
   </g>
   <g id="patch_86">
    <path clip-path="url(#p10ddb4cf6f)" d="M 1021.88414 629.9064 
L 1031.527345 629.9064 
L 1031.527345 629.9064 
L 1021.88414 629.9064 
z
" style="fill:#1f77b4;"/>
   </g>
   <g id="patch_87">
    <path clip-path="url(#p10ddb4cf6f)" d="M 1031.527345 629.9064 
L 1041.170549 629.9064 
L 1041.170549 629.9064 
L 1031.527345 629.9064 
z
" style="fill:#1f77b4;"/>
   </g>
   <g id="patch_88">
    <path clip-path="url(#p10ddb4cf6f)" d="M 1041.170549 629.9064 
L 1050.813753 629.9064 
L 1050.813753 629.9064 
L 1041.170549 629.9064 
z
" style="fill:#1f77b4;"/>
   </g>
   <g id="patch_89">
    <path clip-path="url(#p10ddb4cf6f)" d="M 1050.813753 629.9064 
L 1060.456958 629.9064 
L 1060.456958 629.9064 
L 1050.813753 629.9064 
z
" style="fill:#1f77b4;"/>
   </g>
   <g id="patch_90">
    <path clip-path="url(#p10ddb4cf6f)" d="M 1060.456958 629.9064 
L 1070.100162 629.9064 
L 1070.100162 629.899086 
L 1060.456958 629.899086 
z
" style="fill:#1f77b4;"/>
   </g>
   <g id="patch_91">
    <path clip-path="url(#p10ddb4cf6f)" d="M 1070.100162 629.9064 
L 1079.743366 629.9064 
L 1079.743366 629.899086 
L 1070.100162 629.899086 
z
" style="fill:#1f77b4;"/>
   </g>
   <g id="patch_92">
    <path clip-path="url(#p10ddb4cf6f)" d="M 1079.743366 629.9064 
L 1089.386571 629.9064 
L 1089.386571 629.899086 
L 1079.743366 629.899086 
z
" style="fill:#1f77b4;"/>
   </g>
   <g id="patch_93">
    <path clip-path="url(#p10ddb4cf6f)" d="M 1089.386571 629.9064 
L 1099.029775 629.9064 
L 1099.029775 629.899086 
L 1089.386571 629.899086 
z
" style="fill:#1f77b4;"/>
   </g>
   <g id="patch_94">
    <path clip-path="url(#p10ddb4cf6f)" d="M 1099.029775 629.9064 
L 1108.672979 629.9064 
L 1108.672979 629.9064 
L 1099.029775 629.9064 
z
" style="fill:#1f77b4;"/>
   </g>
   <g id="patch_95">
    <path clip-path="url(#p10ddb4cf6f)" d="M 1108.672979 629.9064 
L 1118.316184 629.9064 
L 1118.316184 629.9064 
L 1108.672979 629.9064 
z
" style="fill:#1f77b4;"/>
   </g>
   <g id="patch_96">
    <path clip-path="url(#p10ddb4cf6f)" d="M 1118.316184 629.9064 
L 1127.959388 629.9064 
L 1127.959388 629.9064 
L 1118.316184 629.9064 
z
" style="fill:#1f77b4;"/>
   </g>
   <g id="patch_97">
    <path clip-path="url(#p10ddb4cf6f)" d="M 1127.959388 629.9064 
L 1137.602592 629.9064 
L 1137.602592 629.899086 
L 1127.959388 629.899086 
z
" style="fill:#1f77b4;"/>
   </g>
   <g id="patch_98">
    <path clip-path="url(#p10ddb4cf6f)" d="M 1137.602592 629.9064 
L 1147.245797 629.9064 
L 1147.245797 629.9064 
L 1137.602592 629.9064 
z
" style="fill:#1f77b4;"/>
   </g>
   <g id="patch_99">
    <path clip-path="url(#p10ddb4cf6f)" d="M 1147.245797 629.9064 
L 1156.889001 629.9064 
L 1156.889001 629.884457 
L 1147.245797 629.884457 
z
" style="fill:#1f77b4;"/>
   </g>
   <g id="patch_100">
    <path clip-path="url(#p10ddb4cf6f)" d="M 1156.889001 629.9064 
L 1166.532205 629.9064 
L 1166.532205 629.9064 
L 1156.889001 629.9064 
z
" style="fill:#1f77b4;"/>
   </g>
   <g id="patch_101">
    <path clip-path="url(#p10ddb4cf6f)" d="M 1166.532205 629.9064 
L 1176.17541 629.9064 
L 1176.17541 629.9064 
L 1166.532205 629.9064 
z
" style="fill:#1f77b4;"/>
   </g>
   <g id="patch_102">
    <path clip-path="url(#p10ddb4cf6f)" d="M 1176.17541 629.9064 
L 1185.818614 629.9064 
L 1185.818614 629.891771 
L 1176.17541 629.891771 
z
" style="fill:#1f77b4;"/>
   </g>
   <g id="patch_103">
    <path clip-path="url(#p10ddb4cf6f)" d="M 1185.818614 629.9064 
L 1195.461818 629.9064 
L 1195.461818 629.899086 
L 1185.818614 629.899086 
z
" style="fill:#1f77b4;"/>
   </g>
   <g id="matplotlib.axis_1">
    <g id="xtick_1">
     <g id="line2d_1">
      <defs>
       <path d="M 0 0 
L 0 3.5 
" id="m5741646302" style="stroke:#000000;stroke-width:0.8;"/>
      </defs>
      <g>
       <use style="stroke:#000000;stroke-width:0.8;" x="237.510272" xlink:href="#m5741646302" y="629.9064"/>
      </g>
     </g>
     <g id="text_1">
      <!-- −0.15 -->
      <defs>
       <path d="M 10.59375 35.5 
L 73.1875 35.5 
L 73.1875 27.203125 
L 10.59375 27.203125 
z
" id="DejaVuSans-8722"/>
       <path d="M 31.78125 66.40625 
Q 24.171875 66.40625 20.328125 58.90625 
Q 16.5 51.421875 16.5 36.375 
Q 16.5 21.390625 20.328125 13.890625 
Q 24.171875 6.390625 31.78125 6.390625 
Q 39.453125 6.390625 43.28125 13.890625 
Q 47.125 21.390625 47.125 36.375 
Q 47.125 51.421875 43.28125 58.90625 
Q 39.453125 66.40625 31.78125 66.40625 
z
M 31.78125 74.21875 
Q 44.046875 74.21875 50.515625 64.515625 
Q 56.984375 54.828125 56.984375 36.375 
Q 56.984375 17.96875 50.515625 8.265625 
Q 44.046875 -1.421875 31.78125 -1.421875 
Q 19.53125 -1.421875 13.0625 8.265625 
Q 6.59375 17.96875 6.59375 36.375 
Q 6.59375 54.828125 13.0625 64.515625 
Q 19.53125 74.21875 31.78125 74.21875 
z
" id="DejaVuSans-48"/>
       <path d="M 10.6875 12.40625 
L 21 12.40625 
L 21 0 
L 10.6875 0 
z
" id="DejaVuSans-46"/>
       <path d="M 12.40625 8.296875 
L 28.515625 8.296875 
L 28.515625 63.921875 
L 10.984375 60.40625 
L 10.984375 69.390625 
L 28.421875 72.90625 
L 38.28125 72.90625 
L 38.28125 8.296875 
L 54.390625 8.296875 
L 54.390625 0 
L 12.40625 0 
z
" id="DejaVuSans-49"/>
       <path d="M 10.796875 72.90625 
L 49.515625 72.90625 
L 49.515625 64.59375 
L 19.828125 64.59375 
L 19.828125 46.734375 
Q 21.96875 47.46875 24.109375 47.828125 
Q 26.265625 48.1875 28.421875 48.1875 
Q 40.625 48.1875 47.75 41.5 
Q 54.890625 34.8125 54.890625 23.390625 
Q 54.890625 11.625 47.5625 5.09375 
Q 40.234375 -1.421875 26.90625 -1.421875 
Q 22.3125 -1.421875 17.546875 -0.640625 
Q 12.796875 0.140625 7.71875 1.703125 
L 7.71875 11.625 
Q 12.109375 9.234375 16.796875 8.0625 
Q 21.484375 6.890625 26.703125 6.890625 
Q 35.15625 6.890625 40.078125 11.328125 
Q 45.015625 15.765625 45.015625 23.390625 
Q 45.015625 31 40.078125 35.4375 
Q 35.15625 39.890625 26.703125 39.890625 
Q 22.75 39.890625 18.8125 39.015625 
Q 14.890625 38.140625 10.796875 36.28125 
z
" id="DejaVuSans-53"/>
      </defs>
      <g transform="translate(222.187615 644.504838)scale(0.1 -0.1)">
       <use xlink:href="#DejaVuSans-8722"/>
       <use x="83.789062" xlink:href="#DejaVuSans-48"/>
       <use x="147.412109" xlink:href="#DejaVuSans-46"/>
       <use x="179.199219" xlink:href="#DejaVuSans-49"/>
       <use x="242.822266" xlink:href="#DejaVuSans-53"/>
      </g>
     </g>
    </g>
    <g id="xtick_2">
     <g id="line2d_2">
      <g>
       <use style="stroke:#000000;stroke-width:0.8;" x="394.883768" xlink:href="#m5741646302" y="629.9064"/>
      </g>
     </g>
     <g id="text_2">
      <!-- −0.10 -->
      <g transform="translate(379.561112 644.504838)scale(0.1 -0.1)">
       <use xlink:href="#DejaVuSans-8722"/>
       <use x="83.789062" xlink:href="#DejaVuSans-48"/>
       <use x="147.412109" xlink:href="#DejaVuSans-46"/>
       <use x="179.199219" xlink:href="#DejaVuSans-49"/>
       <use x="242.822266" xlink:href="#DejaVuSans-48"/>
      </g>
     </g>
    </g>
    <g id="xtick_3">
     <g id="line2d_3">
      <g>
       <use style="stroke:#000000;stroke-width:0.8;" x="552.257264" xlink:href="#m5741646302" y="629.9064"/>
      </g>
     </g>
     <g id="text_3">
      <!-- −0.05 -->
      <g transform="translate(536.934608 644.504838)scale(0.1 -0.1)">
       <use xlink:href="#DejaVuSans-8722"/>
       <use x="83.789062" xlink:href="#DejaVuSans-48"/>
       <use x="147.412109" xlink:href="#DejaVuSans-46"/>
       <use x="179.199219" xlink:href="#DejaVuSans-48"/>
       <use x="242.822266" xlink:href="#DejaVuSans-53"/>
      </g>
     </g>
    </g>
    <g id="xtick_4">
     <g id="line2d_4">
      <g>
       <use style="stroke:#000000;stroke-width:0.8;" x="709.63076" xlink:href="#m5741646302" y="629.9064"/>
      </g>
     </g>
     <g id="text_4">
      <!-- 0.00 -->
      <g transform="translate(698.497948 644.504838)scale(0.1 -0.1)">
       <use xlink:href="#DejaVuSans-48"/>
       <use x="63.623047" xlink:href="#DejaVuSans-46"/>
       <use x="95.410156" xlink:href="#DejaVuSans-48"/>
       <use x="159.033203" xlink:href="#DejaVuSans-48"/>
      </g>
     </g>
    </g>
    <g id="xtick_5">
     <g id="line2d_5">
      <g>
       <use style="stroke:#000000;stroke-width:0.8;" x="867.004256" xlink:href="#m5741646302" y="629.9064"/>
      </g>
     </g>
     <g id="text_5">
      <!-- 0.05 -->
      <g transform="translate(855.871444 644.504838)scale(0.1 -0.1)">
       <use xlink:href="#DejaVuSans-48"/>
       <use x="63.623047" xlink:href="#DejaVuSans-46"/>
       <use x="95.410156" xlink:href="#DejaVuSans-48"/>
       <use x="159.033203" xlink:href="#DejaVuSans-53"/>
      </g>
     </g>
    </g>
    <g id="xtick_6">
     <g id="line2d_6">
      <g>
       <use style="stroke:#000000;stroke-width:0.8;" x="1024.377752" xlink:href="#m5741646302" y="629.9064"/>
      </g>
     </g>
     <g id="text_6">
      <!-- 0.10 -->
      <g transform="translate(1013.24494 644.504838)scale(0.1 -0.1)">
       <use xlink:href="#DejaVuSans-48"/>
       <use x="63.623047" xlink:href="#DejaVuSans-46"/>
       <use x="95.410156" xlink:href="#DejaVuSans-49"/>
       <use x="159.033203" xlink:href="#DejaVuSans-48"/>
      </g>
     </g>
    </g>
    <g id="xtick_7">
     <g id="line2d_7">
      <g>
       <use style="stroke:#000000;stroke-width:0.8;" x="1181.751248" xlink:href="#m5741646302" y="629.9064"/>
      </g>
     </g>
     <g id="text_7">
      <!-- 0.15 -->
      <g transform="translate(1170.618436 644.504838)scale(0.1 -0.1)">
       <use xlink:href="#DejaVuSans-48"/>
       <use x="63.623047" xlink:href="#DejaVuSans-46"/>
       <use x="95.410156" xlink:href="#DejaVuSans-49"/>
       <use x="159.033203" xlink:href="#DejaVuSans-53"/>
      </g>
     </g>
    </g>
    <g id="text_8">
     <!-- $\Delta x$ -->
     <defs>
      <path d="M 34.1875 63.1875 
L 14.15625 8.203125 
L 54.25 8.203125 
z
M 0.78125 0 
L 28.609375 72.90625 
L 39.796875 72.90625 
L 67.578125 0 
z
" id="DejaVuSans-916"/>
      <path d="M 60.015625 54.6875 
L 34.90625 27.875 
L 50.296875 0 
L 39.984375 0 
L 28.421875 21.6875 
L 8.296875 0 
L -2.59375 0 
L 24.3125 28.8125 
L 10.015625 54.6875 
L 20.3125 54.6875 
L 30.8125 34.90625 
L 49.125 54.6875 
z
" id="DejaVuSans-Oblique-120"/>
     </defs>
     <g transform="translate(702.08 658.182963)scale(0.1 -0.1)">
      <use transform="translate(0 0.09375)" xlink:href="#DejaVuSans-916"/>
      <use transform="translate(68.408203 0.09375)" xlink:href="#DejaVuSans-Oblique-120"/>
     </g>
    </g>
   </g>
   <g id="matplotlib.axis_2">
    <g id="ytick_1">
     <g id="line2d_8">
      <defs>
       <path d="M 0 0 
L -3.5 0 
" id="m545d7692d0" style="stroke:#000000;stroke-width:0.8;"/>
      </defs>
      <g>
       <use style="stroke:#000000;stroke-width:0.8;" x="172.8" xlink:href="#m545d7692d0" y="629.9064"/>
      </g>
     </g>
     <g id="text_9">
      <!-- 0 -->
      <g transform="translate(159.4375 633.705619)scale(0.1 -0.1)">
       <use xlink:href="#DejaVuSans-48"/>
      </g>
     </g>
    </g>
    <g id="ytick_2">
     <g id="line2d_9">
      <g>
       <use style="stroke:#000000;stroke-width:0.8;" x="172.8" xlink:href="#m545d7692d0" y="512.416702"/>
      </g>
     </g>
     <g id="text_10">
      <!-- 10 -->
      <g transform="translate(153.075 516.21592)scale(0.1 -0.1)">
       <use xlink:href="#DejaVuSans-49"/>
       <use x="63.623047" xlink:href="#DejaVuSans-48"/>
      </g>
     </g>
    </g>
    <g id="ytick_3">
     <g id="line2d_10">
      <g>
       <use style="stroke:#000000;stroke-width:0.8;" x="172.8" xlink:href="#m545d7692d0" y="394.927003"/>
      </g>
     </g>
     <g id="text_11">
      <!-- 20 -->
      <defs>
       <path d="M 19.1875 8.296875 
L 53.609375 8.296875 
L 53.609375 0 
L 7.328125 0 
L 7.328125 8.296875 
Q 12.9375 14.109375 22.625 23.890625 
Q 32.328125 33.6875 34.8125 36.53125 
Q 39.546875 41.84375 41.421875 45.53125 
Q 43.3125 49.21875 43.3125 52.78125 
Q 43.3125 58.59375 39.234375 62.25 
Q 35.15625 65.921875 28.609375 65.921875 
Q 23.96875 65.921875 18.8125 64.3125 
Q 13.671875 62.703125 7.8125 59.421875 
L 7.8125 69.390625 
Q 13.765625 71.78125 18.9375 73 
Q 24.125 74.21875 28.421875 74.21875 
Q 39.75 74.21875 46.484375 68.546875 
Q 53.21875 62.890625 53.21875 53.421875 
Q 53.21875 48.921875 51.53125 44.890625 
Q 49.859375 40.875 45.40625 35.40625 
Q 44.1875 33.984375 37.640625 27.21875 
Q 31.109375 20.453125 19.1875 8.296875 
z
" id="DejaVuSans-50"/>
      </defs>
      <g transform="translate(153.075 398.726222)scale(0.1 -0.1)">
       <use xlink:href="#DejaVuSans-50"/>
       <use x="63.623047" xlink:href="#DejaVuSans-48"/>
      </g>
     </g>
    </g>
    <g id="ytick_4">
     <g id="line2d_11">
      <g>
       <use style="stroke:#000000;stroke-width:0.8;" x="172.8" xlink:href="#m545d7692d0" y="277.437305"/>
      </g>
     </g>
     <g id="text_12">
      <!-- 30 -->
      <defs>
       <path d="M 40.578125 39.3125 
Q 47.65625 37.796875 51.625 33 
Q 55.609375 28.21875 55.609375 21.1875 
Q 55.609375 10.40625 48.1875 4.484375 
Q 40.765625 -1.421875 27.09375 -1.421875 
Q 22.515625 -1.421875 17.65625 -0.515625 
Q 12.796875 0.390625 7.625 2.203125 
L 7.625 11.71875 
Q 11.71875 9.328125 16.59375 8.109375 
Q 21.484375 6.890625 26.8125 6.890625 
Q 36.078125 6.890625 40.9375 10.546875 
Q 45.796875 14.203125 45.796875 21.1875 
Q 45.796875 27.640625 41.28125 31.265625 
Q 36.765625 34.90625 28.71875 34.90625 
L 20.21875 34.90625 
L 20.21875 43.015625 
L 29.109375 43.015625 
Q 36.375 43.015625 40.234375 45.921875 
Q 44.09375 48.828125 44.09375 54.296875 
Q 44.09375 59.90625 40.109375 62.90625 
Q 36.140625 65.921875 28.71875 65.921875 
Q 24.65625 65.921875 20.015625 65.03125 
Q 15.375 64.15625 9.8125 62.3125 
L 9.8125 71.09375 
Q 15.4375 72.65625 20.34375 73.4375 
Q 25.25 74.21875 29.59375 74.21875 
Q 40.828125 74.21875 47.359375 69.109375 
Q 53.90625 64.015625 53.90625 55.328125 
Q 53.90625 49.265625 50.4375 45.09375 
Q 46.96875 40.921875 40.578125 39.3125 
z
" id="DejaVuSans-51"/>
      </defs>
      <g transform="translate(153.075 281.236524)scale(0.1 -0.1)">
       <use xlink:href="#DejaVuSans-51"/>
       <use x="63.623047" xlink:href="#DejaVuSans-48"/>
      </g>
     </g>
    </g>
    <g id="ytick_5">
     <g id="line2d_12">
      <g>
       <use style="stroke:#000000;stroke-width:0.8;" x="172.8" xlink:href="#m545d7692d0" y="159.947607"/>
      </g>
     </g>
     <g id="text_13">
      <!-- 40 -->
      <defs>
       <path d="M 37.796875 64.3125 
L 12.890625 25.390625 
L 37.796875 25.390625 
z
M 35.203125 72.90625 
L 47.609375 72.90625 
L 47.609375 25.390625 
L 58.015625 25.390625 
L 58.015625 17.1875 
L 47.609375 17.1875 
L 47.609375 0 
L 37.796875 0 
L 37.796875 17.1875 
L 4.890625 17.1875 
L 4.890625 26.703125 
z
" id="DejaVuSans-52"/>
      </defs>
      <g transform="translate(153.075 163.746826)scale(0.1 -0.1)">
       <use xlink:href="#DejaVuSans-52"/>
       <use x="63.623047" xlink:href="#DejaVuSans-48"/>
      </g>
     </g>
    </g>
    <g id="text_14">
     <!-- $p(\Delta x)$ -->
     <defs>
      <path d="M 49.609375 33.6875 
Q 49.609375 40.875 46.484375 44.671875 
Q 43.359375 48.484375 37.5 48.484375 
Q 33.5 48.484375 29.859375 46.4375 
Q 26.21875 44.390625 23.390625 40.484375 
Q 20.609375 36.625 18.9375 31.15625 
Q 17.28125 25.6875 17.28125 20.3125 
Q 17.28125 13.484375 20.40625 9.796875 
Q 23.53125 6.109375 29.296875 6.109375 
Q 33.546875 6.109375 37.1875 8.109375 
Q 40.828125 10.109375 43.40625 13.921875 
Q 46.1875 17.921875 47.890625 23.34375 
Q 49.609375 28.765625 49.609375 33.6875 
z
M 21.78125 46.390625 
Q 25.390625 51.125 30.296875 53.5625 
Q 35.203125 56 41.21875 56 
Q 49.609375 56 54.25 50.5 
Q 58.890625 45.015625 58.890625 35.109375 
Q 58.890625 27 56 19.65625 
Q 53.125 12.3125 47.703125 6.5 
Q 44.09375 2.640625 39.546875 0.609375 
Q 35.015625 -1.421875 29.984375 -1.421875 
Q 24.171875 -1.421875 20.21875 1 
Q 16.265625 3.421875 14.3125 8.203125 
L 8.6875 -20.796875 
L -0.296875 -20.796875 
L 14.40625 54.6875 
L 23.390625 54.6875 
z
" id="DejaVuSans-Oblique-112"/>
      <path d="M 31 75.875 
Q 24.46875 64.65625 21.28125 53.65625 
Q 18.109375 42.671875 18.109375 31.390625 
Q 18.109375 20.125 21.3125 9.0625 
Q 24.515625 -2 31 -13.1875 
L 23.1875 -13.1875 
Q 15.875 -1.703125 12.234375 9.375 
Q 8.59375 20.453125 8.59375 31.390625 
Q 8.59375 42.28125 12.203125 53.3125 
Q 15.828125 64.359375 23.1875 75.875 
z
" id="DejaVuSans-40"/>
      <path d="M 8.015625 75.875 
L 15.828125 75.875 
Q 23.140625 64.359375 26.78125 53.3125 
Q 30.421875 42.28125 30.421875 31.390625 
Q 30.421875 20.453125 26.78125 9.375 
Q 23.140625 -1.703125 15.828125 -13.1875 
L 8.015625 -13.1875 
Q 14.5 -2 17.703125 9.0625 
Q 20.90625 20.125 20.90625 31.390625 
Q 20.90625 42.671875 17.703125 53.65625 
Q 14.5 64.65625 8.015625 75.875 
z
" id="DejaVuSans-41"/>
     </defs>
     <g transform="translate(146.975 370.9188)rotate(-90)scale(0.1 -0.1)">
      <use transform="translate(0 0.125)" xlink:href="#DejaVuSans-Oblique-112"/>
      <use transform="translate(63.476562 0.125)" xlink:href="#DejaVuSans-40"/>
      <use transform="translate(102.490234 0.125)" xlink:href="#DejaVuSans-916"/>
      <use transform="translate(170.898438 0.125)" xlink:href="#DejaVuSans-Oblique-120"/>
      <use transform="translate(230.078125 0.125)" xlink:href="#DejaVuSans-41"/>
     </g>
    </g>
   </g>
   <g id="line2d_13">
    <path clip-path="url(#p10ddb4cf6f)" d="M 221.498182 629.9064 
L 668.375615 629.866499 
L 672.19508 629.681975 
L 676.014545 628.838223 
L 679.834011 625.604041 
L 683.653476 615.242125 
L 687.472941 587.609812 
L 691.292406 526.668107 
L 695.111872 416.6672 
L 698.931337 257.185263 
L 702.750802 78.601633 
L 704.941883 -1 
M 714.795167 -1 
L 718.028663 132.93646 
L 721.848128 310.90574 
L 725.667594 456.628255 
L 729.487059 550.256223 
L 733.306524 598.923615 
L 737.125989 619.707698 
L 740.945455 627.065473 
L 744.76492 629.236722 
L 748.584385 629.772813 
L 756.223316 629.903179 
L 909.001925 629.9064 
L 1195.461818 629.9064 
L 1195.461818 629.9064 
" style="fill:none;stroke:#ff7f0e;stroke-linecap:square;stroke-width:1.5;"/>
   </g>
   <g id="patch_104">
    <path d="M 172.8 629.9064 
L 172.8 84.9312 
" style="fill:none;stroke:#000000;stroke-linecap:square;stroke-linejoin:miter;stroke-width:0.8;"/>
   </g>
   <g id="patch_105">
    <path d="M 1244.16 629.9064 
L 1244.16 84.9312 
" style="fill:none;stroke:#000000;stroke-linecap:square;stroke-linejoin:miter;stroke-width:0.8;"/>
   </g>
   <g id="patch_106">
    <path d="M 172.8 629.9064 
L 1244.16 629.9064 
" style="fill:none;stroke:#000000;stroke-linecap:square;stroke-linejoin:miter;stroke-width:0.8;"/>
   </g>
   <g id="patch_107">
    <path d="M 172.8 84.9312 
L 1244.16 84.9312 
" style="fill:none;stroke:#000000;stroke-linecap:square;stroke-linejoin:miter;stroke-width:0.8;"/>
   </g>
  </g>
 </g>
 <defs>
  <clipPath id="p10ddb4cf6f">
   <rect height="544.9752" width="1071.36" x="172.8" y="84.9312"/>
  </clipPath>
 </defs>
</svg>
