<?xml version="1.0" encoding="utf-8" standalone="no"?>
<!DOCTYPE svg PUBLIC "-//W3C//DTD SVG 1.1//EN"
  "http://www.w3.org/Graphics/SVG/1.1/DTD/svg11.dtd">
<!-- Created with matplotlib (https://matplotlib.org/) -->
<svg height="345.6pt" version="1.1" viewBox="0 0 460.8 345.6" width="460.8pt" xmlns="http://www.w3.org/2000/svg" xmlns:xlink="http://www.w3.org/1999/xlink">
 <defs>
  <style type="text/css">
*{stroke-linecap:butt;stroke-linejoin:round;}
  </style>
 </defs>
 <g id="figure_1">
  <g id="patch_1">
   <path d="M 0 345.6 
L 460.8 345.6 
L 460.8 0 
L 0 0 
z
" style="fill:#ffffff;"/>
  </g>
  <g id="axes_1">
   <g id="patch_2">
    <path d="M 57.6 307.584 
L 414.72 307.584 
L 414.72 41.472 
L 57.6 41.472 
z
" style="fill:#ffffff;"/>
   </g>
   <g id="patch_3">
    <path clip-path="url(#p301cd2b3e0)" d="M 73.832727 307.584 
L 77.047129 307.584 
L 77.047129 307.540198 
L 73.832727 307.540198 
z
" style="fill:#1f77b4;"/>
   </g>
   <g id="patch_4">
    <path clip-path="url(#p301cd2b3e0)" d="M 77.047129 307.584 
L 80.26153 307.584 
L 80.26153 307.584 
L 77.047129 307.584 
z
" style="fill:#1f77b4;"/>
   </g>
   <g id="patch_5">
    <path clip-path="url(#p301cd2b3e0)" d="M 80.26153 307.584 
L 83.475932 307.584 
L 83.475932 307.562099 
L 80.26153 307.562099 
z
" style="fill:#1f77b4;"/>
   </g>
   <g id="patch_6">
    <path clip-path="url(#p301cd2b3e0)" d="M 83.475932 307.584 
L 86.690333 307.584 
L 86.690333 307.562099 
L 83.475932 307.562099 
z
" style="fill:#1f77b4;"/>
   </g>
   <g id="patch_7">
    <path clip-path="url(#p301cd2b3e0)" d="M 86.690333 307.584 
L 89.904734 307.584 
L 89.904734 307.562099 
L 86.690333 307.562099 
z
" style="fill:#1f77b4;"/>
   </g>
   <g id="patch_8">
    <path clip-path="url(#p301cd2b3e0)" d="M 89.904734 307.584 
L 93.119136 307.584 
L 93.119136 307.562099 
L 89.904734 307.562099 
z
" style="fill:#1f77b4;"/>
   </g>
   <g id="patch_9">
    <path clip-path="url(#p301cd2b3e0)" d="M 93.119136 307.584 
L 96.333537 307.584 
L 96.333537 307.540198 
L 93.119136 307.540198 
z
" style="fill:#1f77b4;"/>
   </g>
   <g id="patch_10">
    <path clip-path="url(#p301cd2b3e0)" d="M 96.333537 307.584 
L 99.547939 307.584 
L 99.547939 307.364989 
L 96.333537 307.364989 
z
" style="fill:#1f77b4;"/>
   </g>
   <g id="patch_11">
    <path clip-path="url(#p301cd2b3e0)" d="M 99.547939 307.584 
L 102.76234 307.584 
L 102.76234 307.343087 
L 99.547939 307.343087 
z
" style="fill:#1f77b4;"/>
   </g>
   <g id="patch_12">
    <path clip-path="url(#p301cd2b3e0)" d="M 102.76234 307.584 
L 105.976742 307.584 
L 105.976742 307.430692 
L 102.76234 307.430692 
z
" style="fill:#1f77b4;"/>
   </g>
   <g id="patch_13">
    <path clip-path="url(#p301cd2b3e0)" d="M 105.976742 307.584 
L 109.191143 307.584 
L 109.191143 307.364989 
L 105.976742 307.364989 
z
" style="fill:#1f77b4;"/>
   </g>
   <g id="patch_14">
    <path clip-path="url(#p301cd2b3e0)" d="M 109.191143 307.584 
L 112.405545 307.584 
L 112.405545 307.102175 
L 109.191143 307.102175 
z
" style="fill:#1f77b4;"/>
   </g>
   <g id="patch_15">
    <path clip-path="url(#p301cd2b3e0)" d="M 112.405545 307.584 
L 115.619946 307.584 
L 115.619946 306.62035 
L 112.405545 306.62035 
z
" style="fill:#1f77b4;"/>
   </g>
   <g id="patch_16">
    <path clip-path="url(#p301cd2b3e0)" d="M 115.619946 307.584 
L 118.834347 307.584 
L 118.834347 306.795559 
L 115.619946 306.795559 
z
" style="fill:#1f77b4;"/>
   </g>
   <g id="patch_17">
    <path clip-path="url(#p301cd2b3e0)" d="M 118.834347 307.584 
L 122.048749 307.584 
L 122.048749 306.642251 
L 118.834347 306.642251 
z
" style="fill:#1f77b4;"/>
   </g>
   <g id="patch_18">
    <path clip-path="url(#p301cd2b3e0)" d="M 122.048749 307.584 
L 125.26315 307.584 
L 125.26315 305.766205 
L 122.048749 305.766205 
z
" style="fill:#1f77b4;"/>
   </g>
   <g id="patch_19">
    <path clip-path="url(#p301cd2b3e0)" d="M 125.26315 307.584 
L 128.477552 307.584 
L 128.477552 305.393886 
L 125.26315 305.393886 
z
" style="fill:#1f77b4;"/>
   </g>
   <g id="patch_20">
    <path clip-path="url(#p301cd2b3e0)" d="M 128.477552 307.584 
L 131.691953 307.584 
L 131.691953 304.780654 
L 128.477552 304.780654 
z
" style="fill:#1f77b4;"/>
   </g>
   <g id="patch_21">
    <path clip-path="url(#p301cd2b3e0)" d="M 131.691953 307.584 
L 134.906355 307.584 
L 134.906355 304.255027 
L 131.691953 304.255027 
z
" style="fill:#1f77b4;"/>
   </g>
   <g id="patch_22">
    <path clip-path="url(#p301cd2b3e0)" d="M 134.906355 307.584 
L 138.120756 307.584 
L 138.120756 302.853354 
L 134.906355 302.853354 
z
" style="fill:#1f77b4;"/>
   </g>
   <g id="patch_23">
    <path clip-path="url(#p301cd2b3e0)" d="M 138.120756 307.584 
L 141.335158 307.584 
L 141.335158 300.707042 
L 138.120756 300.707042 
z
" style="fill:#1f77b4;"/>
   </g>
   <g id="patch_24">
    <path clip-path="url(#p301cd2b3e0)" d="M 141.335158 307.584 
L 144.549559 307.584 
L 144.549559 299.32727 
L 141.335158 299.32727 
z
" style="fill:#1f77b4;"/>
   </g>
   <g id="patch_25">
    <path clip-path="url(#p301cd2b3e0)" d="M 144.549559 307.584 
L 147.76396 307.584 
L 147.76396 297.59708 
L 144.549559 297.59708 
z
" style="fill:#1f77b4;"/>
   </g>
   <g id="patch_26">
    <path clip-path="url(#p301cd2b3e0)" d="M 147.76396 307.584 
L 150.978362 307.584 
L 150.978362 295.078449 
L 147.76396 295.078449 
z
" style="fill:#1f77b4;"/>
   </g>
   <g id="patch_27">
    <path clip-path="url(#p301cd2b3e0)" d="M 150.978362 307.584 
L 154.192763 307.584 
L 154.192763 290.829627 
L 150.978362 290.829627 
z
" style="fill:#1f77b4;"/>
   </g>
   <g id="patch_28">
    <path clip-path="url(#p301cd2b3e0)" d="M 154.192763 307.584 
L 157.407165 307.584 
L 157.407165 287.194038 
L 154.192763 287.194038 
z
" style="fill:#1f77b4;"/>
   </g>
   <g id="patch_29">
    <path clip-path="url(#p301cd2b3e0)" d="M 157.407165 307.584 
L 160.621566 307.584 
L 160.621566 282.419589 
L 157.407165 282.419589 
z
" style="fill:#1f77b4;"/>
   </g>
   <g id="patch_30">
    <path clip-path="url(#p301cd2b3e0)" d="M 160.621566 307.584 
L 163.835968 307.584 
L 163.835968 277.645141 
L 160.621566 277.645141 
z
" style="fill:#1f77b4;"/>
   </g>
   <g id="patch_31">
    <path clip-path="url(#p301cd2b3e0)" d="M 163.835968 307.584 
L 167.050369 307.584 
L 167.050369 269.848335 
L 163.835968 269.848335 
z
" style="fill:#1f77b4;"/>
   </g>
   <g id="patch_32">
    <path clip-path="url(#p301cd2b3e0)" d="M 167.050369 307.584 
L 170.26477 307.584 
L 170.26477 260.16803 
L 167.050369 260.16803 
z
" style="fill:#1f77b4;"/>
   </g>
   <g id="patch_33">
    <path clip-path="url(#p301cd2b3e0)" d="M 170.26477 307.584 
L 173.479172 307.584 
L 173.479172 254.517536 
L 170.26477 254.517536 
z
" style="fill:#1f77b4;"/>
   </g>
   <g id="patch_34">
    <path clip-path="url(#p301cd2b3e0)" d="M 173.479172 307.584 
L 176.693573 307.584 
L 176.693573 243.807878 
L 173.479172 243.807878 
z
" style="fill:#1f77b4;"/>
   </g>
   <g id="patch_35">
    <path clip-path="url(#p301cd2b3e0)" d="M 176.693573 307.584 
L 179.907975 307.584 
L 179.907975 231.565141 
L 176.693573 231.565141 
z
" style="fill:#1f77b4;"/>
   </g>
   <g id="patch_36">
    <path clip-path="url(#p301cd2b3e0)" d="M 179.907975 307.584 
L 183.122376 307.584 
L 183.122376 222.738981 
L 179.907975 222.738981 
z
" style="fill:#1f77b4;"/>
   </g>
   <g id="patch_37">
    <path clip-path="url(#p301cd2b3e0)" d="M 183.122376 307.584 
L 186.336778 307.584 
L 186.336778 210.145825 
L 183.122376 210.145825 
z
" style="fill:#1f77b4;"/>
   </g>
   <g id="patch_38">
    <path clip-path="url(#p301cd2b3e0)" d="M 186.336778 307.584 
L 189.551179 307.584 
L 189.551179 192.931529 
L 186.336778 192.931529 
z
" style="fill:#1f77b4;"/>
   </g>
   <g id="patch_39">
    <path clip-path="url(#p301cd2b3e0)" d="M 189.551179 307.584 
L 192.765581 307.584 
L 192.765581 180.929703 
L 189.551179 180.929703 
z
" style="fill:#1f77b4;"/>
   </g>
   <g id="patch_40">
    <path clip-path="url(#p301cd2b3e0)" d="M 192.765581 307.584 
L 195.979982 307.584 
L 195.979982 163.890616 
L 192.765581 163.890616 
z
" style="fill:#1f77b4;"/>
   </g>
   <g id="patch_41">
    <path clip-path="url(#p301cd2b3e0)" d="M 195.979982 307.584 
L 199.194383 307.584 
L 199.194383 147.048639 
L 195.979982 147.048639 
z
" style="fill:#1f77b4;"/>
   </g>
   <g id="patch_42">
    <path clip-path="url(#p301cd2b3e0)" d="M 199.194383 307.584 
L 202.408785 307.584 
L 202.408785 135.638144 
L 199.194383 135.638144 
z
" style="fill:#1f77b4;"/>
   </g>
   <g id="patch_43">
    <path clip-path="url(#p301cd2b3e0)" d="M 202.408785 307.584 
L 205.623186 307.584 
L 205.623186 117.504 
L 202.408785 117.504 
z
" style="fill:#1f77b4;"/>
   </g>
   <g id="patch_44">
    <path clip-path="url(#p301cd2b3e0)" d="M 205.623186 307.584 
L 208.837588 307.584 
L 208.837588 106.641034 
L 205.623186 106.641034 
z
" style="fill:#1f77b4;"/>
   </g>
   <g id="patch_45">
    <path clip-path="url(#p301cd2b3e0)" d="M 208.837588 307.584 
L 212.051989 307.584 
L 212.051989 92.952821 
L 208.837588 92.952821 
z
" style="fill:#1f77b4;"/>
   </g>
   <g id="patch_46">
    <path clip-path="url(#p301cd2b3e0)" d="M 212.051989 307.584 
L 215.266391 307.584 
L 215.266391 82.527878 
L 212.051989 82.527878 
z
" style="fill:#1f77b4;"/>
   </g>
   <g id="patch_47">
    <path clip-path="url(#p301cd2b3e0)" d="M 215.266391 307.584 
L 218.480792 307.584 
L 218.480792 78.936091 
L 215.266391 78.936091 
z
" style="fill:#1f77b4;"/>
   </g>
   <g id="patch_48">
    <path clip-path="url(#p301cd2b3e0)" d="M 218.480792 307.584 
L 221.695194 307.584 
L 221.695194 73.767422 
L 218.480792 73.767422 
z
" style="fill:#1f77b4;"/>
   </g>
   <g id="patch_49">
    <path clip-path="url(#p301cd2b3e0)" d="M 221.695194 307.584 
L 224.909595 307.584 
L 224.909595 65.664 
L 221.695194 65.664 
z
" style="fill:#1f77b4;"/>
   </g>
   <g id="patch_50">
    <path clip-path="url(#p301cd2b3e0)" d="M 224.909595 307.584 
L 228.123996 307.584 
L 228.123996 -5673.748928 
L 224.909595 -5673.748928 
z
" style="fill:#1f77b4;"/>
   </g>
   <g id="patch_51">
    <path clip-path="url(#p301cd2b3e0)" d="M 228.123996 307.584 
L 231.338398 307.584 
L 231.338398 70.438449 
L 228.123996 70.438449 
z
" style="fill:#1f77b4;"/>
   </g>
   <g id="patch_52">
    <path clip-path="url(#p301cd2b3e0)" d="M 231.338398 307.584 
L 234.552799 307.584 
L 234.552799 77.205901 
L 231.338398 77.205901 
z
" style="fill:#1f77b4;"/>
   </g>
   <g id="patch_53">
    <path clip-path="url(#p301cd2b3e0)" d="M 234.552799 307.584 
L 237.767201 307.584 
L 237.767201 88.13457 
L 234.552799 88.13457 
z
" style="fill:#1f77b4;"/>
   </g>
   <g id="patch_54">
    <path clip-path="url(#p301cd2b3e0)" d="M 237.767201 307.584 
L 240.981602 307.584 
L 240.981602 92.5367 
L 237.767201 92.5367 
z
" style="fill:#1f77b4;"/>
   </g>
   <g id="patch_55">
    <path clip-path="url(#p301cd2b3e0)" d="M 240.981602 307.584 
L 244.196004 307.584 
L 244.196004 102.742631 
L 240.981602 102.742631 
z
" style="fill:#1f77b4;"/>
   </g>
   <g id="patch_56">
    <path clip-path="url(#p301cd2b3e0)" d="M 244.196004 307.584 
L 247.410405 307.584 
L 247.410405 119.737916 
L 244.196004 119.737916 
z
" style="fill:#1f77b4;"/>
   </g>
   <g id="patch_57">
    <path clip-path="url(#p301cd2b3e0)" d="M 247.410405 307.584 
L 250.624806 307.584 
L 250.624806 131.345521 
L 247.410405 131.345521 
z
" style="fill:#1f77b4;"/>
   </g>
   <g id="patch_58">
    <path clip-path="url(#p301cd2b3e0)" d="M 250.624806 307.584 
L 253.839208 307.584 
L 253.839208 150.092897 
L 250.624806 150.092897 
z
" style="fill:#1f77b4;"/>
   </g>
   <g id="patch_59">
    <path clip-path="url(#p301cd2b3e0)" d="M 253.839208 307.584 
L 257.053609 307.584 
L 257.053609 163.364989 
L 253.839208 163.364989 
z
" style="fill:#1f77b4;"/>
   </g>
   <g id="patch_60">
    <path clip-path="url(#p301cd2b3e0)" d="M 257.053609 307.584 
L 260.268011 307.584 
L 260.268011 179.046205 
L 257.053609 179.046205 
z
" style="fill:#1f77b4;"/>
   </g>
   <g id="patch_61">
    <path clip-path="url(#p301cd2b3e0)" d="M 260.268011 307.584 
L 263.482412 307.584 
L 263.482412 190.412897 
L 260.268011 190.412897 
z
" style="fill:#1f77b4;"/>
   </g>
   <g id="patch_62">
    <path clip-path="url(#p301cd2b3e0)" d="M 263.482412 307.584 
L 266.696814 307.584 
L 266.696814 204.780046 
L 263.482412 204.780046 
z
" style="fill:#1f77b4;"/>
   </g>
   <g id="patch_63">
    <path clip-path="url(#p301cd2b3e0)" d="M 266.696814 307.584 
L 269.911215 307.584 
L 269.911215 220.461262 
L 266.696814 220.461262 
z
" style="fill:#1f77b4;"/>
   </g>
   <g id="patch_64">
    <path clip-path="url(#p301cd2b3e0)" d="M 269.911215 307.584 
L 273.125617 307.584 
L 273.125617 232.682099 
L 269.911215 232.682099 
z
" style="fill:#1f77b4;"/>
   </g>
   <g id="patch_65">
    <path clip-path="url(#p301cd2b3e0)" d="M 273.125617 307.584 
L 276.340018 307.584 
L 276.340018 242.406205 
L 273.125617 242.406205 
z
" style="fill:#1f77b4;"/>
   </g>
   <g id="patch_66">
    <path clip-path="url(#p301cd2b3e0)" d="M 276.340018 307.584 
L 279.554419 307.584 
L 279.554419 252.699741 
L 276.340018 252.699741 
z
" style="fill:#1f77b4;"/>
   </g>
   <g id="patch_67">
    <path clip-path="url(#p301cd2b3e0)" d="M 279.554419 307.584 
L 282.768821 307.584 
L 282.768821 260.890768 
L 279.554419 260.890768 
z
" style="fill:#1f77b4;"/>
   </g>
   <g id="patch_68">
    <path clip-path="url(#p301cd2b3e0)" d="M 282.768821 307.584 
L 285.983222 307.584 
L 285.983222 271.534722 
L 282.768821 271.534722 
z
" style="fill:#1f77b4;"/>
   </g>
   <g id="patch_69">
    <path clip-path="url(#p301cd2b3e0)" d="M 285.983222 307.584 
L 289.197624 307.584 
L 289.197624 275.257916 
L 285.983222 275.257916 
z
" style="fill:#1f77b4;"/>
   </g>
   <g id="patch_70">
    <path clip-path="url(#p301cd2b3e0)" d="M 289.197624 307.584 
L 292.412025 307.584 
L 292.412025 282.310084 
L 289.197624 282.310084 
z
" style="fill:#1f77b4;"/>
   </g>
   <g id="patch_71">
    <path clip-path="url(#p301cd2b3e0)" d="M 292.412025 307.584 
L 295.626427 307.584 
L 295.626427 286.449399 
L 292.412025 286.449399 
z
" style="fill:#1f77b4;"/>
   </g>
   <g id="patch_72">
    <path clip-path="url(#p301cd2b3e0)" d="M 295.626427 307.584 
L 298.840828 307.584 
L 298.840828 290.87343 
L 295.626427 290.87343 
z
" style="fill:#1f77b4;"/>
   </g>
   <g id="patch_73">
    <path clip-path="url(#p301cd2b3e0)" d="M 298.840828 307.584 
L 302.05523 307.584 
L 302.05523 295.363163 
L 298.840828 295.363163 
z
" style="fill:#1f77b4;"/>
   </g>
   <g id="patch_74">
    <path clip-path="url(#p301cd2b3e0)" d="M 302.05523 307.584 
L 305.269631 307.584 
L 305.269631 296.83054 
L 302.05523 296.83054 
z
" style="fill:#1f77b4;"/>
   </g>
   <g id="patch_75">
    <path clip-path="url(#p301cd2b3e0)" d="M 305.269631 307.584 
L 308.484032 307.584 
L 308.484032 299.458677 
L 305.269631 299.458677 
z
" style="fill:#1f77b4;"/>
   </g>
   <g id="patch_76">
    <path clip-path="url(#p301cd2b3e0)" d="M 308.484032 307.584 
L 311.698434 307.584 
L 311.698434 300.991757 
L 308.484032 300.991757 
z
" style="fill:#1f77b4;"/>
   </g>
   <g id="patch_77">
    <path clip-path="url(#p301cd2b3e0)" d="M 311.698434 307.584 
L 314.912835 307.584 
L 314.912835 302.897156 
L 311.698434 302.897156 
z
" style="fill:#1f77b4;"/>
   </g>
   <g id="patch_78">
    <path clip-path="url(#p301cd2b3e0)" d="M 314.912835 307.584 
L 318.127237 307.584 
L 318.127237 303.729399 
L 314.912835 303.729399 
z
" style="fill:#1f77b4;"/>
   </g>
   <g id="patch_79">
    <path clip-path="url(#p301cd2b3e0)" d="M 318.127237 307.584 
L 321.341638 307.584 
L 321.341638 304.298829 
L 318.127237 304.298829 
z
" style="fill:#1f77b4;"/>
   </g>
   <g id="patch_80">
    <path clip-path="url(#p301cd2b3e0)" d="M 321.341638 307.584 
L 324.55604 307.584 
L 324.55604 305.437688 
L 321.341638 305.437688 
z
" style="fill:#1f77b4;"/>
   </g>
   <g id="patch_81">
    <path clip-path="url(#p301cd2b3e0)" d="M 324.55604 307.584 
L 327.770441 307.584 
L 327.770441 305.766205 
L 324.55604 305.766205 
z
" style="fill:#1f77b4;"/>
   </g>
   <g id="patch_82">
    <path clip-path="url(#p301cd2b3e0)" d="M 327.770441 307.584 
L 330.984842 307.584 
L 330.984842 306.554646 
L 327.770441 306.554646 
z
" style="fill:#1f77b4;"/>
   </g>
   <g id="patch_83">
    <path clip-path="url(#p301cd2b3e0)" d="M 330.984842 307.584 
L 334.199244 307.584 
L 334.199244 306.861262 
L 330.984842 306.861262 
z
" style="fill:#1f77b4;"/>
   </g>
   <g id="patch_84">
    <path clip-path="url(#p301cd2b3e0)" d="M 334.199244 307.584 
L 337.413645 307.584 
L 337.413645 306.839361 
L 334.199244 306.839361 
z
" style="fill:#1f77b4;"/>
   </g>
   <g id="patch_85">
    <path clip-path="url(#p301cd2b3e0)" d="M 337.413645 307.584 
L 340.628047 307.584 
L 340.628047 307.036471 
L 337.413645 307.036471 
z
" style="fill:#1f77b4;"/>
   </g>
   <g id="patch_86">
    <path clip-path="url(#p301cd2b3e0)" d="M 340.628047 307.584 
L 343.842448 307.584 
L 343.842448 307.189779 
L 340.628047 307.189779 
z
" style="fill:#1f77b4;"/>
   </g>
   <g id="patch_87">
    <path clip-path="url(#p301cd2b3e0)" d="M 343.842448 307.584 
L 347.05685 307.584 
L 347.05685 307.299285 
L 343.842448 307.299285 
z
" style="fill:#1f77b4;"/>
   </g>
   <g id="patch_88">
    <path clip-path="url(#p301cd2b3e0)" d="M 347.05685 307.584 
L 350.271251 307.584 
L 350.271251 307.364989 
L 347.05685 307.364989 
z
" style="fill:#1f77b4;"/>
   </g>
   <g id="patch_89">
    <path clip-path="url(#p301cd2b3e0)" d="M 350.271251 307.584 
L 353.485653 307.584 
L 353.485653 307.452593 
L 350.271251 307.452593 
z
" style="fill:#1f77b4;"/>
   </g>
   <g id="patch_90">
    <path clip-path="url(#p301cd2b3e0)" d="M 353.485653 307.584 
L 356.700054 307.584 
L 356.700054 307.496395 
L 353.485653 307.496395 
z
" style="fill:#1f77b4;"/>
   </g>
   <g id="patch_91">
    <path clip-path="url(#p301cd2b3e0)" d="M 356.700054 307.584 
L 359.914455 307.584 
L 359.914455 307.518297 
L 356.700054 307.518297 
z
" style="fill:#1f77b4;"/>
   </g>
   <g id="patch_92">
    <path clip-path="url(#p301cd2b3e0)" d="M 359.914455 307.584 
L 363.128857 307.584 
L 363.128857 307.518297 
L 359.914455 307.518297 
z
" style="fill:#1f77b4;"/>
   </g>
   <g id="patch_93">
    <path clip-path="url(#p301cd2b3e0)" d="M 363.128857 307.584 
L 366.343258 307.584 
L 366.343258 307.562099 
L 363.128857 307.562099 
z
" style="fill:#1f77b4;"/>
   </g>
   <g id="patch_94">
    <path clip-path="url(#p301cd2b3e0)" d="M 366.343258 307.584 
L 369.55766 307.584 
L 369.55766 307.562099 
L 366.343258 307.562099 
z
" style="fill:#1f77b4;"/>
   </g>
   <g id="patch_95">
    <path clip-path="url(#p301cd2b3e0)" d="M 369.55766 307.584 
L 372.772061 307.584 
L 372.772061 307.562099 
L 369.55766 307.562099 
z
" style="fill:#1f77b4;"/>
   </g>
   <g id="patch_96">
    <path clip-path="url(#p301cd2b3e0)" d="M 372.772061 307.584 
L 375.986463 307.584 
L 375.986463 307.540198 
L 372.772061 307.540198 
z
" style="fill:#1f77b4;"/>
   </g>
   <g id="patch_97">
    <path clip-path="url(#p301cd2b3e0)" d="M 375.986463 307.584 
L 379.200864 307.584 
L 379.200864 307.584 
L 375.986463 307.584 
z
" style="fill:#1f77b4;"/>
   </g>
   <g id="patch_98">
    <path clip-path="url(#p301cd2b3e0)" d="M 379.200864 307.584 
L 382.415266 307.584 
L 382.415266 307.584 
L 379.200864 307.584 
z
" style="fill:#1f77b4;"/>
   </g>
   <g id="patch_99">
    <path clip-path="url(#p301cd2b3e0)" d="M 382.415266 307.584 
L 385.629667 307.584 
L 385.629667 307.584 
L 382.415266 307.584 
z
" style="fill:#1f77b4;"/>
   </g>
   <g id="patch_100">
    <path clip-path="url(#p301cd2b3e0)" d="M 385.629667 307.584 
L 388.844068 307.584 
L 388.844068 307.584 
L 385.629667 307.584 
z
" style="fill:#1f77b4;"/>
   </g>
   <g id="patch_101">
    <path clip-path="url(#p301cd2b3e0)" d="M 388.844068 307.584 
L 392.05847 307.584 
L 392.05847 307.584 
L 388.844068 307.584 
z
" style="fill:#1f77b4;"/>
   </g>
   <g id="patch_102">
    <path clip-path="url(#p301cd2b3e0)" d="M 392.05847 307.584 
L 395.272871 307.584 
L 395.272871 307.584 
L 392.05847 307.584 
z
" style="fill:#1f77b4;"/>
   </g>
   <g id="patch_103">
    <path clip-path="url(#p301cd2b3e0)" d="M 395.272871 307.584 
L 398.487273 307.584 
L 398.487273 307.562099 
L 395.272871 307.562099 
z
" style="fill:#1f77b4;"/>
   </g>
   <g id="matplotlib.axis_1">
    <g id="xtick_1">
     <g id="line2d_1">
      <defs>
       <path d="M 0 0 
L 0 3.5 
" id="m1d857ede2c" style="stroke:#000000;stroke-width:0.8;"/>
      </defs>
      <g>
       <use style="stroke:#000000;stroke-width:0.8;" x="78.239174" xlink:href="#m1d857ede2c" y="307.584"/>
      </g>
     </g>
     <g id="text_1">
      <!-- −0.006 -->
      <defs>
       <path d="M 10.59375 35.5 
L 73.1875 35.5 
L 73.1875 27.203125 
L 10.59375 27.203125 
z
" id="DejaVuSans-8722"/>
       <path d="M 31.78125 66.40625 
Q 24.171875 66.40625 20.328125 58.90625 
Q 16.5 51.421875 16.5 36.375 
Q 16.5 21.390625 20.328125 13.890625 
Q 24.171875 6.390625 31.78125 6.390625 
Q 39.453125 6.390625 43.28125 13.890625 
Q 47.125 21.390625 47.125 36.375 
Q 47.125 51.421875 43.28125 58.90625 
Q 39.453125 66.40625 31.78125 66.40625 
z
M 31.78125 74.21875 
Q 44.046875 74.21875 50.515625 64.515625 
Q 56.984375 54.828125 56.984375 36.375 
Q 56.984375 17.96875 50.515625 8.265625 
Q 44.046875 -1.421875 31.78125 -1.421875 
Q 19.53125 -1.421875 13.0625 8.265625 
Q 6.59375 17.96875 6.59375 36.375 
Q 6.59375 54.828125 13.0625 64.515625 
Q 19.53125 74.21875 31.78125 74.21875 
z
" id="DejaVuSans-48"/>
       <path d="M 10.6875 12.40625 
L 21 12.40625 
L 21 0 
L 10.6875 0 
z
" id="DejaVuSans-46"/>
       <path d="M 33.015625 40.375 
Q 26.375 40.375 22.484375 35.828125 
Q 18.609375 31.296875 18.609375 23.390625 
Q 18.609375 15.53125 22.484375 10.953125 
Q 26.375 6.390625 33.015625 6.390625 
Q 39.65625 6.390625 43.53125 10.953125 
Q 47.40625 15.53125 47.40625 23.390625 
Q 47.40625 31.296875 43.53125 35.828125 
Q 39.65625 40.375 33.015625 40.375 
z
M 52.59375 71.296875 
L 52.59375 62.3125 
Q 48.875 64.0625 45.09375 64.984375 
Q 41.3125 65.921875 37.59375 65.921875 
Q 27.828125 65.921875 22.671875 59.328125 
Q 17.53125 52.734375 16.796875 39.40625 
Q 19.671875 43.65625 24.015625 45.921875 
Q 28.375 48.1875 33.59375 48.1875 
Q 44.578125 48.1875 50.953125 41.515625 
Q 57.328125 34.859375 57.328125 23.390625 
Q 57.328125 12.15625 50.6875 5.359375 
Q 44.046875 -1.421875 33.015625 -1.421875 
Q 20.359375 -1.421875 13.671875 8.265625 
Q 6.984375 17.96875 6.984375 36.375 
Q 6.984375 53.65625 15.1875 63.9375 
Q 23.390625 74.21875 37.203125 74.21875 
Q 40.921875 74.21875 44.703125 73.484375 
Q 48.484375 72.75 52.59375 71.296875 
z
" id="DejaVuSans-54"/>
      </defs>
      <g transform="translate(59.735267 322.182437)scale(0.1 -0.1)">
       <use xlink:href="#DejaVuSans-8722"/>
       <use x="83.789062" xlink:href="#DejaVuSans-48"/>
       <use x="147.412109" xlink:href="#DejaVuSans-46"/>
       <use x="179.199219" xlink:href="#DejaVuSans-48"/>
       <use x="242.822266" xlink:href="#DejaVuSans-48"/>
       <use x="306.445312" xlink:href="#DejaVuSans-54"/>
      </g>
     </g>
    </g>
    <g id="xtick_2">
     <g id="line2d_2">
      <g>
       <use style="stroke:#000000;stroke-width:0.8;" x="127.166309" xlink:href="#m1d857ede2c" y="307.584"/>
      </g>
     </g>
     <g id="text_2">
      <!-- −0.004 -->
      <defs>
       <path d="M 37.796875 64.3125 
L 12.890625 25.390625 
L 37.796875 25.390625 
z
M 35.203125 72.90625 
L 47.609375 72.90625 
L 47.609375 25.390625 
L 58.015625 25.390625 
L 58.015625 17.1875 
L 47.609375 17.1875 
L 47.609375 0 
L 37.796875 0 
L 37.796875 17.1875 
L 4.890625 17.1875 
L 4.890625 26.703125 
z
" id="DejaVuSans-52"/>
      </defs>
      <g transform="translate(108.662403 322.182437)scale(0.1 -0.1)">
       <use xlink:href="#DejaVuSans-8722"/>
       <use x="83.789062" xlink:href="#DejaVuSans-48"/>
       <use x="147.412109" xlink:href="#DejaVuSans-46"/>
       <use x="179.199219" xlink:href="#DejaVuSans-48"/>
       <use x="242.822266" xlink:href="#DejaVuSans-48"/>
       <use x="306.445312" xlink:href="#DejaVuSans-52"/>
      </g>
     </g>
    </g>
    <g id="xtick_3">
     <g id="line2d_3">
      <g>
       <use style="stroke:#000000;stroke-width:0.8;" x="176.093444" xlink:href="#m1d857ede2c" y="307.584"/>
      </g>
     </g>
     <g id="text_3">
      <!-- −0.002 -->
      <defs>
       <path d="M 19.1875 8.296875 
L 53.609375 8.296875 
L 53.609375 0 
L 7.328125 0 
L 7.328125 8.296875 
Q 12.9375 14.109375 22.625 23.890625 
Q 32.328125 33.6875 34.8125 36.53125 
Q 39.546875 41.84375 41.421875 45.53125 
Q 43.3125 49.21875 43.3125 52.78125 
Q 43.3125 58.59375 39.234375 62.25 
Q 35.15625 65.921875 28.609375 65.921875 
Q 23.96875 65.921875 18.8125 64.3125 
Q 13.671875 62.703125 7.8125 59.421875 
L 7.8125 69.390625 
Q 13.765625 71.78125 18.9375 73 
Q 24.125 74.21875 28.421875 74.21875 
Q 39.75 74.21875 46.484375 68.546875 
Q 53.21875 62.890625 53.21875 53.421875 
Q 53.21875 48.921875 51.53125 44.890625 
Q 49.859375 40.875 45.40625 35.40625 
Q 44.1875 33.984375 37.640625 27.21875 
Q 31.109375 20.453125 19.1875 8.296875 
z
" id="DejaVuSans-50"/>
      </defs>
      <g transform="translate(157.589538 322.182437)scale(0.1 -0.1)">
       <use xlink:href="#DejaVuSans-8722"/>
       <use x="83.789062" xlink:href="#DejaVuSans-48"/>
       <use x="147.412109" xlink:href="#DejaVuSans-46"/>
       <use x="179.199219" xlink:href="#DejaVuSans-48"/>
       <use x="242.822266" xlink:href="#DejaVuSans-48"/>
       <use x="306.445312" xlink:href="#DejaVuSans-50"/>
      </g>
     </g>
    </g>
    <g id="xtick_4">
     <g id="line2d_4">
      <g>
       <use style="stroke:#000000;stroke-width:0.8;" x="225.02058" xlink:href="#m1d857ede2c" y="307.584"/>
      </g>
     </g>
     <g id="text_4">
      <!-- 0.000 -->
      <g transform="translate(210.706517 322.182437)scale(0.1 -0.1)">
       <use xlink:href="#DejaVuSans-48"/>
       <use x="63.623047" xlink:href="#DejaVuSans-46"/>
       <use x="95.410156" xlink:href="#DejaVuSans-48"/>
       <use x="159.033203" xlink:href="#DejaVuSans-48"/>
       <use x="222.65625" xlink:href="#DejaVuSans-48"/>
      </g>
     </g>
    </g>
    <g id="xtick_5">
     <g id="line2d_5">
      <g>
       <use style="stroke:#000000;stroke-width:0.8;" x="273.947715" xlink:href="#m1d857ede2c" y="307.584"/>
      </g>
     </g>
     <g id="text_5">
      <!-- 0.002 -->
      <g transform="translate(259.633653 322.182437)scale(0.1 -0.1)">
       <use xlink:href="#DejaVuSans-48"/>
       <use x="63.623047" xlink:href="#DejaVuSans-46"/>
       <use x="95.410156" xlink:href="#DejaVuSans-48"/>
       <use x="159.033203" xlink:href="#DejaVuSans-48"/>
       <use x="222.65625" xlink:href="#DejaVuSans-50"/>
      </g>
     </g>
    </g>
    <g id="xtick_6">
     <g id="line2d_6">
      <g>
       <use style="stroke:#000000;stroke-width:0.8;" x="322.874851" xlink:href="#m1d857ede2c" y="307.584"/>
      </g>
     </g>
     <g id="text_6">
      <!-- 0.004 -->
      <g transform="translate(308.560788 322.182437)scale(0.1 -0.1)">
       <use xlink:href="#DejaVuSans-48"/>
       <use x="63.623047" xlink:href="#DejaVuSans-46"/>
       <use x="95.410156" xlink:href="#DejaVuSans-48"/>
       <use x="159.033203" xlink:href="#DejaVuSans-48"/>
       <use x="222.65625" xlink:href="#DejaVuSans-52"/>
      </g>
     </g>
    </g>
    <g id="xtick_7">
     <g id="line2d_7">
      <g>
       <use style="stroke:#000000;stroke-width:0.8;" x="371.801986" xlink:href="#m1d857ede2c" y="307.584"/>
      </g>
     </g>
     <g id="text_7">
      <!-- 0.006 -->
      <g transform="translate(357.487924 322.182437)scale(0.1 -0.1)">
       <use xlink:href="#DejaVuSans-48"/>
       <use x="63.623047" xlink:href="#DejaVuSans-46"/>
       <use x="95.410156" xlink:href="#DejaVuSans-48"/>
       <use x="159.033203" xlink:href="#DejaVuSans-48"/>
       <use x="222.65625" xlink:href="#DejaVuSans-54"/>
      </g>
     </g>
    </g>
    <g id="text_8">
     <!-- $\Delta x$ -->
     <defs>
      <path d="M 34.1875 63.1875 
L 14.15625 8.203125 
L 54.25 8.203125 
z
M 0.78125 0 
L 28.609375 72.90625 
L 39.796875 72.90625 
L 67.578125 0 
z
" id="DejaVuSans-916"/>
      <path d="M 60.015625 54.6875 
L 34.90625 27.875 
L 50.296875 0 
L 39.984375 0 
L 28.421875 21.6875 
L 8.296875 0 
L -2.59375 0 
L 24.3125 28.8125 
L 10.015625 54.6875 
L 20.3125 54.6875 
L 30.8125 34.90625 
L 49.125 54.6875 
z
" id="DejaVuSans-Oblique-120"/>
     </defs>
     <g transform="translate(229.76 335.860562)scale(0.1 -0.1)">
      <use transform="translate(0 0.09375)" xlink:href="#DejaVuSans-916"/>
      <use transform="translate(68.408203 0.09375)" xlink:href="#DejaVuSans-Oblique-120"/>
     </g>
    </g>
   </g>
   <g id="matplotlib.axis_2">
    <g id="ytick_1">
     <g id="line2d_8">
      <defs>
       <path d="M 0 0 
L -3.5 0 
" id="me22dfc420b" style="stroke:#000000;stroke-width:0.8;"/>
      </defs>
      <g>
       <use style="stroke:#000000;stroke-width:0.8;" x="57.6" xlink:href="#me22dfc420b" y="307.584"/>
      </g>
     </g>
     <g id="text_9">
      <!-- 0 -->
      <g transform="translate(44.2375 311.383219)scale(0.1 -0.1)">
       <use xlink:href="#DejaVuSans-48"/>
      </g>
     </g>
    </g>
    <g id="ytick_2">
     <g id="line2d_9">
      <g>
       <use style="stroke:#000000;stroke-width:0.8;" x="57.6" xlink:href="#me22dfc420b" y="277.409079"/>
      </g>
     </g>
     <g id="text_10">
      <!-- 20 -->
      <g transform="translate(37.875 281.208298)scale(0.1 -0.1)">
       <use xlink:href="#DejaVuSans-50"/>
       <use x="63.623047" xlink:href="#DejaVuSans-48"/>
      </g>
     </g>
    </g>
    <g id="ytick_3">
     <g id="line2d_10">
      <g>
       <use style="stroke:#000000;stroke-width:0.8;" x="57.6" xlink:href="#me22dfc420b" y="247.234158"/>
      </g>
     </g>
     <g id="text_11">
      <!-- 40 -->
      <g transform="translate(37.875 251.033377)scale(0.1 -0.1)">
       <use xlink:href="#DejaVuSans-52"/>
       <use x="63.623047" xlink:href="#DejaVuSans-48"/>
      </g>
     </g>
    </g>
    <g id="ytick_4">
     <g id="line2d_11">
      <g>
       <use style="stroke:#000000;stroke-width:0.8;" x="57.6" xlink:href="#me22dfc420b" y="217.059237"/>
      </g>
     </g>
     <g id="text_12">
      <!-- 60 -->
      <g transform="translate(37.875 220.858456)scale(0.1 -0.1)">
       <use xlink:href="#DejaVuSans-54"/>
       <use x="63.623047" xlink:href="#DejaVuSans-48"/>
      </g>
     </g>
    </g>
    <g id="ytick_5">
     <g id="line2d_12">
      <g>
       <use style="stroke:#000000;stroke-width:0.8;" x="57.6" xlink:href="#me22dfc420b" y="186.884317"/>
      </g>
     </g>
     <g id="text_13">
      <!-- 80 -->
      <defs>
       <path d="M 31.78125 34.625 
Q 24.75 34.625 20.71875 30.859375 
Q 16.703125 27.09375 16.703125 20.515625 
Q 16.703125 13.921875 20.71875 10.15625 
Q 24.75 6.390625 31.78125 6.390625 
Q 38.8125 6.390625 42.859375 10.171875 
Q 46.921875 13.96875 46.921875 20.515625 
Q 46.921875 27.09375 42.890625 30.859375 
Q 38.875 34.625 31.78125 34.625 
z
M 21.921875 38.8125 
Q 15.578125 40.375 12.03125 44.71875 
Q 8.5 49.078125 8.5 55.328125 
Q 8.5 64.0625 14.71875 69.140625 
Q 20.953125 74.21875 31.78125 74.21875 
Q 42.671875 74.21875 48.875 69.140625 
Q 55.078125 64.0625 55.078125 55.328125 
Q 55.078125 49.078125 51.53125 44.71875 
Q 48 40.375 41.703125 38.8125 
Q 48.828125 37.15625 52.796875 32.3125 
Q 56.78125 27.484375 56.78125 20.515625 
Q 56.78125 9.90625 50.3125 4.234375 
Q 43.84375 -1.421875 31.78125 -1.421875 
Q 19.734375 -1.421875 13.25 4.234375 
Q 6.78125 9.90625 6.78125 20.515625 
Q 6.78125 27.484375 10.78125 32.3125 
Q 14.796875 37.15625 21.921875 38.8125 
z
M 18.3125 54.390625 
Q 18.3125 48.734375 21.84375 45.5625 
Q 25.390625 42.390625 31.78125 42.390625 
Q 38.140625 42.390625 41.71875 45.5625 
Q 45.3125 48.734375 45.3125 54.390625 
Q 45.3125 60.0625 41.71875 63.234375 
Q 38.140625 66.40625 31.78125 66.40625 
Q 25.390625 66.40625 21.84375 63.234375 
Q 18.3125 60.0625 18.3125 54.390625 
z
" id="DejaVuSans-56"/>
      </defs>
      <g transform="translate(37.875 190.683535)scale(0.1 -0.1)">
       <use xlink:href="#DejaVuSans-56"/>
       <use x="63.623047" xlink:href="#DejaVuSans-48"/>
      </g>
     </g>
    </g>
    <g id="ytick_6">
     <g id="line2d_13">
      <g>
       <use style="stroke:#000000;stroke-width:0.8;" x="57.6" xlink:href="#me22dfc420b" y="156.709396"/>
      </g>
     </g>
     <g id="text_14">
      <!-- 100 -->
      <defs>
       <path d="M 12.40625 8.296875 
L 28.515625 8.296875 
L 28.515625 63.921875 
L 10.984375 60.40625 
L 10.984375 69.390625 
L 28.421875 72.90625 
L 38.28125 72.90625 
L 38.28125 8.296875 
L 54.390625 8.296875 
L 54.390625 0 
L 12.40625 0 
z
" id="DejaVuSans-49"/>
      </defs>
      <g transform="translate(31.5125 160.508614)scale(0.1 -0.1)">
       <use xlink:href="#DejaVuSans-49"/>
       <use x="63.623047" xlink:href="#DejaVuSans-48"/>
       <use x="127.246094" xlink:href="#DejaVuSans-48"/>
      </g>
     </g>
    </g>
    <g id="ytick_7">
     <g id="line2d_14">
      <g>
       <use style="stroke:#000000;stroke-width:0.8;" x="57.6" xlink:href="#me22dfc420b" y="126.534475"/>
      </g>
     </g>
     <g id="text_15">
      <!-- 120 -->
      <g transform="translate(31.5125 130.333694)scale(0.1 -0.1)">
       <use xlink:href="#DejaVuSans-49"/>
       <use x="63.623047" xlink:href="#DejaVuSans-50"/>
       <use x="127.246094" xlink:href="#DejaVuSans-48"/>
      </g>
     </g>
    </g>
    <g id="ytick_8">
     <g id="line2d_15">
      <g>
       <use style="stroke:#000000;stroke-width:0.8;" x="57.6" xlink:href="#me22dfc420b" y="96.359554"/>
      </g>
     </g>
     <g id="text_16">
      <!-- 140 -->
      <g transform="translate(31.5125 100.158773)scale(0.1 -0.1)">
       <use xlink:href="#DejaVuSans-49"/>
       <use x="63.623047" xlink:href="#DejaVuSans-52"/>
       <use x="127.246094" xlink:href="#DejaVuSans-48"/>
      </g>
     </g>
    </g>
    <g id="ytick_9">
     <g id="line2d_16">
      <g>
       <use style="stroke:#000000;stroke-width:0.8;" x="57.6" xlink:href="#me22dfc420b" y="66.184633"/>
      </g>
     </g>
     <g id="text_17">
      <!-- 160 -->
      <g transform="translate(31.5125 69.983852)scale(0.1 -0.1)">
       <use xlink:href="#DejaVuSans-49"/>
       <use x="63.623047" xlink:href="#DejaVuSans-54"/>
       <use x="127.246094" xlink:href="#DejaVuSans-48"/>
      </g>
     </g>
    </g>
    <g id="text_18">
     <!-- $p(\Delta x)$ -->
     <defs>
      <path d="M 49.609375 33.6875 
Q 49.609375 40.875 46.484375 44.671875 
Q 43.359375 48.484375 37.5 48.484375 
Q 33.5 48.484375 29.859375 46.4375 
Q 26.21875 44.390625 23.390625 40.484375 
Q 20.609375 36.625 18.9375 31.15625 
Q 17.28125 25.6875 17.28125 20.3125 
Q 17.28125 13.484375 20.40625 9.796875 
Q 23.53125 6.109375 29.296875 6.109375 
Q 33.546875 6.109375 37.1875 8.109375 
Q 40.828125 10.109375 43.40625 13.921875 
Q 46.1875 17.921875 47.890625 23.34375 
Q 49.609375 28.765625 49.609375 33.6875 
z
M 21.78125 46.390625 
Q 25.390625 51.125 30.296875 53.5625 
Q 35.203125 56 41.21875 56 
Q 49.609375 56 54.25 50.5 
Q 58.890625 45.015625 58.890625 35.109375 
Q 58.890625 27 56 19.65625 
Q 53.125 12.3125 47.703125 6.5 
Q 44.09375 2.640625 39.546875 0.609375 
Q 35.015625 -1.421875 29.984375 -1.421875 
Q 24.171875 -1.421875 20.21875 1 
Q 16.265625 3.421875 14.3125 8.203125 
L 8.6875 -20.796875 
L -0.296875 -20.796875 
L 14.40625 54.6875 
L 23.390625 54.6875 
z
" id="DejaVuSans-Oblique-112"/>
      <path d="M 31 75.875 
Q 24.46875 64.65625 21.28125 53.65625 
Q 18.109375 42.671875 18.109375 31.390625 
Q 18.109375 20.125 21.3125 9.0625 
Q 24.515625 -2 31 -13.1875 
L 23.1875 -13.1875 
Q 15.875 -1.703125 12.234375 9.375 
Q 8.59375 20.453125 8.59375 31.390625 
Q 8.59375 42.28125 12.203125 53.3125 
Q 15.828125 64.359375 23.1875 75.875 
z
" id="DejaVuSans-40"/>
      <path d="M 8.015625 75.875 
L 15.828125 75.875 
Q 23.140625 64.359375 26.78125 53.3125 
Q 30.421875 42.28125 30.421875 31.390625 
Q 30.421875 20.453125 26.78125 9.375 
Q 23.140625 -1.703125 15.828125 -13.1875 
L 8.015625 -13.1875 
Q 14.5 -2 17.703125 9.0625 
Q 20.90625 20.125 20.90625 31.390625 
Q 20.90625 42.671875 17.703125 53.65625 
Q 14.5 64.65625 8.015625 75.875 
z
" id="DejaVuSans-41"/>
     </defs>
     <g transform="translate(25.4125 188.028)rotate(-90)scale(0.1 -0.1)">
      <use transform="translate(0 0.125)" xlink:href="#DejaVuSans-Oblique-112"/>
      <use transform="translate(63.476562 0.125)" xlink:href="#DejaVuSans-40"/>
      <use transform="translate(102.490234 0.125)" xlink:href="#DejaVuSans-916"/>
      <use transform="translate(170.898438 0.125)" xlink:href="#DejaVuSans-Oblique-120"/>
      <use transform="translate(230.078125 0.125)" xlink:href="#DejaVuSans-41"/>
     </g>
    </g>
   </g>
   <g id="line2d_17">
    <path clip-path="url(#p301cd2b3e0)" d="M 73.832727 307.582644 
L 104.388449 307.474925 
L 113.300535 307.258326 
L 119.66631 306.908223 
L 124.75893 306.409011 
L 128.578396 305.836575 
L 132.397861 305.024999 
L 134.944171 304.312098 
L 137.490481 303.429148 
L 140.036791 302.34394 
L 142.583102 301.020395 
L 145.129412 299.418663 
L 147.675722 297.495392 
L 150.222032 295.204194 
L 152.768342 292.49634 
L 155.314652 289.321703 
L 157.860963 285.629963 
L 160.407273 281.372079 
L 162.953583 276.502013 
L 165.499893 270.978685 
L 168.046203 264.768107 
L 170.592513 257.845657 
L 173.138824 250.198378 
L 175.685134 241.82725 
L 178.231444 232.749296 
L 180.777754 222.999415 
L 184.597219 207.238886 
L 188.416684 190.36216 
L 194.78246 160.807555 
L 201.148235 131.502652 
L 204.967701 115.175638 
L 207.514011 105.198451 
L 210.060321 96.156964 
L 212.606631 88.219166 
L 213.879786 84.712364 
L 215.152941 81.536889 
L 216.426096 78.708405 
L 217.699251 76.240992 
L 218.972406 74.147031 
L 220.245561 72.437099 
L 221.518717 71.119881 
L 222.791872 70.202097 
L 224.065027 69.688443 
L 225.338182 69.581554 
L 226.611337 69.881978 
L 227.884492 70.588174 
L 229.157647 71.696523 
L 230.430802 73.201361 
L 231.703957 75.095026 
L 232.977112 77.367924 
L 234.250267 80.008608 
L 235.523422 83.003875 
L 236.796578 86.338878 
L 239.342888 93.961214 
L 241.889198 102.728839 
L 244.435508 112.477512 
L 246.981818 123.030632 
L 250.801283 139.966206 
L 258.440214 175.564434 
L 263.532834 198.780113 
L 267.352299 215.148065 
L 271.171765 230.254613 
L 273.718075 239.512987 
L 276.264385 248.071893 
L 278.810695 255.909783 
L 281.357005 263.021664 
L 283.903316 269.41705 
L 286.449626 275.117727 
L 288.995936 280.155449 
L 291.542246 284.569647 
L 294.088556 288.405257 
L 296.634866 291.710709 
L 299.181176 294.53614 
L 301.727487 296.931856 
L 304.273797 298.947053 
L 306.820107 300.628811 
L 309.366417 302.021332 
L 311.912727 303.16542 
L 314.459037 304.098157 
L 317.005348 304.852769 
L 320.824813 305.713934 
L 324.644278 306.323152 
L 329.736898 306.856232 
L 336.102674 307.231691 
L 345.014759 307.465261 
L 360.29262 307.56886 
L 398.487273 307.58397 
L 398.487273 307.58397 
" style="fill:none;stroke:#ff7f0e;stroke-linecap:square;stroke-width:1.5;"/>
   </g>
   <g id="patch_104">
    <path d="M 57.6 307.584 
L 57.6 41.472 
" style="fill:none;stroke:#000000;stroke-linecap:square;stroke-linejoin:miter;stroke-width:0.8;"/>
   </g>
   <g id="patch_105">
    <path d="M 414.72 307.584 
L 414.72 41.472 
" style="fill:none;stroke:#000000;stroke-linecap:square;stroke-linejoin:miter;stroke-width:0.8;"/>
   </g>
   <g id="patch_106">
    <path d="M 57.6 307.584 
L 414.72 307.584 
" style="fill:none;stroke:#000000;stroke-linecap:square;stroke-linejoin:miter;stroke-width:0.8;"/>
   </g>
   <g id="patch_107">
    <path d="M 57.6 41.472 
L 414.72 41.472 
" style="fill:none;stroke:#000000;stroke-linecap:square;stroke-linejoin:miter;stroke-width:0.8;"/>
   </g>
  </g>
 </g>
 <defs>
  <clipPath id="p301cd2b3e0">
   <rect height="266.112" width="357.12" x="57.6" y="41.472"/>
  </clipPath>
 </defs>
</svg>
