<?xml version="1.0" encoding="utf-8" standalone="no"?>
<!DOCTYPE svg PUBLIC "-//W3C//DTD SVG 1.1//EN"
  "http://www.w3.org/Graphics/SVG/1.1/DTD/svg11.dtd">
<!-- Created with matplotlib (https://matplotlib.org/) -->
<svg height="345.6pt" version="1.1" viewBox="0 0 460.8 345.6" width="460.8pt" xmlns="http://www.w3.org/2000/svg" xmlns:xlink="http://www.w3.org/1999/xlink">
 <defs>
  <style type="text/css">
*{stroke-linecap:butt;stroke-linejoin:round;}
  </style>
 </defs>
 <g id="figure_1">
  <g id="patch_1">
   <path d="M 0 345.6 
L 460.8 345.6 
L 460.8 0 
L 0 0 
z
" style="fill:#ffffff;"/>
  </g>
  <g id="axes_1">
   <g id="patch_2">
    <path d="M 57.6 307.584 
L 414.72 307.584 
L 414.72 41.472 
L 57.6 41.472 
z
" style="fill:#ffffff;"/>
   </g>
   <g id="matplotlib.axis_1">
    <g id="xtick_1">
     <g id="line2d_1">
      <defs>
       <path d="M 0 0 
L 0 3.5 
" id="m63944037c7" style="stroke:#000000;stroke-width:0.8;"/>
      </defs>
      <g>
       <use style="stroke:#000000;stroke-width:0.8;" x="106.622836" xlink:href="#m63944037c7" y="307.584"/>
      </g>
     </g>
     <g id="text_1">
      <!-- −0.4 -->
      <defs>
       <path d="M 10.59375 35.5 
L 73.1875 35.5 
L 73.1875 27.203125 
L 10.59375 27.203125 
z
" id="DejaVuSans-8722"/>
       <path d="M 31.78125 66.40625 
Q 24.171875 66.40625 20.328125 58.90625 
Q 16.5 51.421875 16.5 36.375 
Q 16.5 21.390625 20.328125 13.890625 
Q 24.171875 6.390625 31.78125 6.390625 
Q 39.453125 6.390625 43.28125 13.890625 
Q 47.125 21.390625 47.125 36.375 
Q 47.125 51.421875 43.28125 58.90625 
Q 39.453125 66.40625 31.78125 66.40625 
z
M 31.78125 74.21875 
Q 44.046875 74.21875 50.515625 64.515625 
Q 56.984375 54.828125 56.984375 36.375 
Q 56.984375 17.96875 50.515625 8.265625 
Q 44.046875 -1.421875 31.78125 -1.421875 
Q 19.53125 -1.421875 13.0625 8.265625 
Q 6.59375 17.96875 6.59375 36.375 
Q 6.59375 54.828125 13.0625 64.515625 
Q 19.53125 74.21875 31.78125 74.21875 
z
" id="DejaVuSans-48"/>
       <path d="M 10.6875 12.40625 
L 21 12.40625 
L 21 0 
L 10.6875 0 
z
" id="DejaVuSans-46"/>
       <path d="M 37.796875 64.3125 
L 12.890625 25.390625 
L 37.796875 25.390625 
z
M 35.203125 72.90625 
L 47.609375 72.90625 
L 47.609375 25.390625 
L 58.015625 25.390625 
L 58.015625 17.1875 
L 47.609375 17.1875 
L 47.609375 0 
L 37.796875 0 
L 37.796875 17.1875 
L 4.890625 17.1875 
L 4.890625 26.703125 
z
" id="DejaVuSans-52"/>
      </defs>
      <g transform="translate(94.48143 322.182437)scale(0.1 -0.1)">
       <use xlink:href="#DejaVuSans-8722"/>
       <use x="83.789062" xlink:href="#DejaVuSans-48"/>
       <use x="147.412109" xlink:href="#DejaVuSans-46"/>
       <use x="179.199219" xlink:href="#DejaVuSans-52"/>
      </g>
     </g>
    </g>
    <g id="xtick_2">
     <g id="line2d_2">
      <g>
       <use style="stroke:#000000;stroke-width:0.8;" x="172.203055" xlink:href="#m63944037c7" y="307.584"/>
      </g>
     </g>
     <g id="text_2">
      <!-- −0.2 -->
      <defs>
       <path d="M 19.1875 8.296875 
L 53.609375 8.296875 
L 53.609375 0 
L 7.328125 0 
L 7.328125 8.296875 
Q 12.9375 14.109375 22.625 23.890625 
Q 32.328125 33.6875 34.8125 36.53125 
Q 39.546875 41.84375 41.421875 45.53125 
Q 43.3125 49.21875 43.3125 52.78125 
Q 43.3125 58.59375 39.234375 62.25 
Q 35.15625 65.921875 28.609375 65.921875 
Q 23.96875 65.921875 18.8125 64.3125 
Q 13.671875 62.703125 7.8125 59.421875 
L 7.8125 69.390625 
Q 13.765625 71.78125 18.9375 73 
Q 24.125 74.21875 28.421875 74.21875 
Q 39.75 74.21875 46.484375 68.546875 
Q 53.21875 62.890625 53.21875 53.421875 
Q 53.21875 48.921875 51.53125 44.890625 
Q 49.859375 40.875 45.40625 35.40625 
Q 44.1875 33.984375 37.640625 27.21875 
Q 31.109375 20.453125 19.1875 8.296875 
z
" id="DejaVuSans-50"/>
      </defs>
      <g transform="translate(160.061648 322.182437)scale(0.1 -0.1)">
       <use xlink:href="#DejaVuSans-8722"/>
       <use x="83.789062" xlink:href="#DejaVuSans-48"/>
       <use x="147.412109" xlink:href="#DejaVuSans-46"/>
       <use x="179.199219" xlink:href="#DejaVuSans-50"/>
      </g>
     </g>
    </g>
    <g id="xtick_3">
     <g id="line2d_3">
      <g>
       <use style="stroke:#000000;stroke-width:0.8;" x="237.783273" xlink:href="#m63944037c7" y="307.584"/>
      </g>
     </g>
     <g id="text_3">
      <!-- 0.0 -->
      <g transform="translate(229.83171 322.182437)scale(0.1 -0.1)">
       <use xlink:href="#DejaVuSans-48"/>
       <use x="63.623047" xlink:href="#DejaVuSans-46"/>
       <use x="95.410156" xlink:href="#DejaVuSans-48"/>
      </g>
     </g>
    </g>
    <g id="xtick_4">
     <g id="line2d_4">
      <g>
       <use style="stroke:#000000;stroke-width:0.8;" x="303.363491" xlink:href="#m63944037c7" y="307.584"/>
      </g>
     </g>
     <g id="text_4">
      <!-- 0.2 -->
      <g transform="translate(295.411928 322.182437)scale(0.1 -0.1)">
       <use xlink:href="#DejaVuSans-48"/>
       <use x="63.623047" xlink:href="#DejaVuSans-46"/>
       <use x="95.410156" xlink:href="#DejaVuSans-50"/>
      </g>
     </g>
    </g>
    <g id="xtick_5">
     <g id="line2d_5">
      <g>
       <use style="stroke:#000000;stroke-width:0.8;" x="368.943709" xlink:href="#m63944037c7" y="307.584"/>
      </g>
     </g>
     <g id="text_5">
      <!-- 0.4 -->
      <g transform="translate(360.992147 322.182437)scale(0.1 -0.1)">
       <use xlink:href="#DejaVuSans-48"/>
       <use x="63.623047" xlink:href="#DejaVuSans-46"/>
       <use x="95.410156" xlink:href="#DejaVuSans-52"/>
      </g>
     </g>
    </g>
    <g id="text_6">
     <!-- $\frac{x}{L}$ -->
     <defs>
      <path d="M 60.015625 54.6875 
L 34.90625 27.875 
L 50.296875 0 
L 39.984375 0 
L 28.421875 21.6875 
L 8.296875 0 
L -2.59375 0 
L 24.3125 28.8125 
L 10.015625 54.6875 
L 20.3125 54.6875 
L 30.8125 34.90625 
L 49.125 54.6875 
z
" id="DejaVuSans-Oblique-120"/>
      <path d="M 16.796875 72.90625 
L 26.703125 72.90625 
L 14.203125 8.203125 
L 49.703125 8.203125 
L 48.09375 0 
L 2.6875 0 
z
" id="DejaVuSans-Oblique-76"/>
     </defs>
     <g transform="translate(233.46 336.562125)scale(0.1 -0.1)">
      <use transform="translate(0 44.71875)scale(0.7)" xlink:href="#DejaVuSans-Oblique-120"/>
      <use transform="translate(1 -37.565625)scale(0.7)" xlink:href="#DejaVuSans-Oblique-76"/>
      <path d="M 0 19.71875 
L 0 25.96875 
L 41.425781 25.96875 
L 41.425781 19.71875 
L 0 19.71875 
z
"/>
     </g>
    </g>
   </g>
   <g id="matplotlib.axis_2">
    <g id="ytick_1">
     <g id="line2d_6">
      <defs>
       <path d="M 0 0 
L -3.5 0 
" id="m7be661146b" style="stroke:#000000;stroke-width:0.8;"/>
      </defs>
      <g>
       <use style="stroke:#000000;stroke-width:0.8;" x="57.6" xlink:href="#m7be661146b" y="302.184313"/>
      </g>
     </g>
     <g id="text_7">
      <!-- 0.2 -->
      <g transform="translate(34.696875 305.983532)scale(0.1 -0.1)">
       <use xlink:href="#DejaVuSans-48"/>
       <use x="63.623047" xlink:href="#DejaVuSans-46"/>
       <use x="95.410156" xlink:href="#DejaVuSans-50"/>
      </g>
     </g>
    </g>
    <g id="ytick_2">
     <g id="line2d_7">
      <g>
       <use style="stroke:#000000;stroke-width:0.8;" x="57.6" xlink:href="#m7be661146b" y="246.699152"/>
      </g>
     </g>
     <g id="text_8">
      <!-- 0.4 -->
      <g transform="translate(34.696875 250.49837)scale(0.1 -0.1)">
       <use xlink:href="#DejaVuSans-48"/>
       <use x="63.623047" xlink:href="#DejaVuSans-46"/>
       <use x="95.410156" xlink:href="#DejaVuSans-52"/>
      </g>
     </g>
    </g>
    <g id="ytick_3">
     <g id="line2d_8">
      <g>
       <use style="stroke:#000000;stroke-width:0.8;" x="57.6" xlink:href="#m7be661146b" y="191.21399"/>
      </g>
     </g>
     <g id="text_9">
      <!-- 0.6 -->
      <defs>
       <path d="M 33.015625 40.375 
Q 26.375 40.375 22.484375 35.828125 
Q 18.609375 31.296875 18.609375 23.390625 
Q 18.609375 15.53125 22.484375 10.953125 
Q 26.375 6.390625 33.015625 6.390625 
Q 39.65625 6.390625 43.53125 10.953125 
Q 47.40625 15.53125 47.40625 23.390625 
Q 47.40625 31.296875 43.53125 35.828125 
Q 39.65625 40.375 33.015625 40.375 
z
M 52.59375 71.296875 
L 52.59375 62.3125 
Q 48.875 64.0625 45.09375 64.984375 
Q 41.3125 65.921875 37.59375 65.921875 
Q 27.828125 65.921875 22.671875 59.328125 
Q 17.53125 52.734375 16.796875 39.40625 
Q 19.671875 43.65625 24.015625 45.921875 
Q 28.375 48.1875 33.59375 48.1875 
Q 44.578125 48.1875 50.953125 41.515625 
Q 57.328125 34.859375 57.328125 23.390625 
Q 57.328125 12.15625 50.6875 5.359375 
Q 44.046875 -1.421875 33.015625 -1.421875 
Q 20.359375 -1.421875 13.671875 8.265625 
Q 6.984375 17.96875 6.984375 36.375 
Q 6.984375 53.65625 15.1875 63.9375 
Q 23.390625 74.21875 37.203125 74.21875 
Q 40.921875 74.21875 44.703125 73.484375 
Q 48.484375 72.75 52.59375 71.296875 
z
" id="DejaVuSans-54"/>
      </defs>
      <g transform="translate(34.696875 195.013209)scale(0.1 -0.1)">
       <use xlink:href="#DejaVuSans-48"/>
       <use x="63.623047" xlink:href="#DejaVuSans-46"/>
       <use x="95.410156" xlink:href="#DejaVuSans-54"/>
      </g>
     </g>
    </g>
    <g id="ytick_4">
     <g id="line2d_9">
      <g>
       <use style="stroke:#000000;stroke-width:0.8;" x="57.6" xlink:href="#m7be661146b" y="135.728828"/>
      </g>
     </g>
     <g id="text_10">
      <!-- 0.8 -->
      <defs>
       <path d="M 31.78125 34.625 
Q 24.75 34.625 20.71875 30.859375 
Q 16.703125 27.09375 16.703125 20.515625 
Q 16.703125 13.921875 20.71875 10.15625 
Q 24.75 6.390625 31.78125 6.390625 
Q 38.8125 6.390625 42.859375 10.171875 
Q 46.921875 13.96875 46.921875 20.515625 
Q 46.921875 27.09375 42.890625 30.859375 
Q 38.875 34.625 31.78125 34.625 
z
M 21.921875 38.8125 
Q 15.578125 40.375 12.03125 44.71875 
Q 8.5 49.078125 8.5 55.328125 
Q 8.5 64.0625 14.71875 69.140625 
Q 20.953125 74.21875 31.78125 74.21875 
Q 42.671875 74.21875 48.875 69.140625 
Q 55.078125 64.0625 55.078125 55.328125 
Q 55.078125 49.078125 51.53125 44.71875 
Q 48 40.375 41.703125 38.8125 
Q 48.828125 37.15625 52.796875 32.3125 
Q 56.78125 27.484375 56.78125 20.515625 
Q 56.78125 9.90625 50.3125 4.234375 
Q 43.84375 -1.421875 31.78125 -1.421875 
Q 19.734375 -1.421875 13.25 4.234375 
Q 6.78125 9.90625 6.78125 20.515625 
Q 6.78125 27.484375 10.78125 32.3125 
Q 14.796875 37.15625 21.921875 38.8125 
z
M 18.3125 54.390625 
Q 18.3125 48.734375 21.84375 45.5625 
Q 25.390625 42.390625 31.78125 42.390625 
Q 38.140625 42.390625 41.71875 45.5625 
Q 45.3125 48.734375 45.3125 54.390625 
Q 45.3125 60.0625 41.71875 63.234375 
Q 38.140625 66.40625 31.78125 66.40625 
Q 25.390625 66.40625 21.84375 63.234375 
Q 18.3125 60.0625 18.3125 54.390625 
z
" id="DejaVuSans-56"/>
      </defs>
      <g transform="translate(34.696875 139.528047)scale(0.1 -0.1)">
       <use xlink:href="#DejaVuSans-48"/>
       <use x="63.623047" xlink:href="#DejaVuSans-46"/>
       <use x="95.410156" xlink:href="#DejaVuSans-56"/>
      </g>
     </g>
    </g>
    <g id="ytick_5">
     <g id="line2d_10">
      <g>
       <use style="stroke:#000000;stroke-width:0.8;" x="57.6" xlink:href="#m7be661146b" y="80.243667"/>
      </g>
     </g>
     <g id="text_11">
      <!-- 1.0 -->
      <defs>
       <path d="M 12.40625 8.296875 
L 28.515625 8.296875 
L 28.515625 63.921875 
L 10.984375 60.40625 
L 10.984375 69.390625 
L 28.421875 72.90625 
L 38.28125 72.90625 
L 38.28125 8.296875 
L 54.390625 8.296875 
L 54.390625 0 
L 12.40625 0 
z
" id="DejaVuSans-49"/>
      </defs>
      <g transform="translate(34.696875 84.042885)scale(0.1 -0.1)">
       <use xlink:href="#DejaVuSans-49"/>
       <use x="63.623047" xlink:href="#DejaVuSans-46"/>
       <use x="95.410156" xlink:href="#DejaVuSans-48"/>
      </g>
     </g>
    </g>
    <g id="text_12">
     <!-- $\frac{\Delta N}{N}$ -->
     <defs>
      <path d="M 34.1875 63.1875 
L 14.15625 8.203125 
L 54.25 8.203125 
z
M 0.78125 0 
L 28.609375 72.90625 
L 39.796875 72.90625 
L 67.578125 0 
z
" id="DejaVuSans-916"/>
      <path d="M 16.890625 72.90625 
L 30.171875 72.90625 
L 50.296875 10.40625 
L 62.5 72.90625 
L 72.125 72.90625 
L 57.90625 0 
L 44.578125 0 
L 24.515625 62.890625 
L 12.3125 0 
L 2.6875 0 
z
" id="DejaVuSans-Oblique-78"/>
     </defs>
     <g transform="translate(26.796875 180.178)rotate(-90)scale(0.1 -0.1)">
      <use transform="translate(0 43.965625)scale(0.7)" xlink:href="#DejaVuSans-916"/>
      <use transform="translate(47.885742 43.965625)scale(0.7)" xlink:href="#DejaVuSans-Oblique-78"/>
      <use transform="translate(24 -38.31875)scale(0.7)" xlink:href="#DejaVuSans-Oblique-78"/>
      <path d="M 0 18.965625 
L 0 25.215625 
L 100.249023 25.215625 
L 100.249023 18.965625 
L 0 18.965625 
z
"/>
     </g>
    </g>
   </g>
   <g id="line2d_11">
    <defs>
     <path d="M 0 1.5 
C 0.397805 1.5 0.77937 1.341951 1.06066 1.06066 
C 1.341951 0.77937 1.5 0.397805 1.5 0 
C 1.5 -0.397805 1.341951 -0.77937 1.06066 -1.06066 
C 0.77937 -1.341951 0.397805 -1.5 0 -1.5 
C -0.397805 -1.5 -0.77937 -1.341951 -1.06066 -1.06066 
C -1.341951 -0.77937 -1.5 -0.397805 -1.5 0 
C -1.5 0.397805 -1.341951 0.77937 -1.06066 1.06066 
C -0.77937 1.341951 -0.397805 1.5 0 1.5 
z
" id="mee543c0987" style="stroke:#1f77b4;"/>
    </defs>
    <g clip-path="url(#pbcc53217b0)">
     <use style="fill:#1f77b4;stroke:#1f77b4;" x="73.832727" xlink:href="#mee543c0987" y="53.700453"/>
     <use style="fill:#1f77b4;stroke:#1f77b4;" x="77.079273" xlink:href="#mee543c0987" y="53.568"/>
     <use style="fill:#1f77b4;stroke:#1f77b4;" x="80.325818" xlink:href="#mee543c0987" y="53.578981"/>
     <use style="fill:#1f77b4;stroke:#1f77b4;" x="83.572364" xlink:href="#mee543c0987" y="53.751263"/>
     <use style="fill:#1f77b4;stroke:#1f77b4;" x="86.818909" xlink:href="#mee543c0987" y="54.115788"/>
     <use style="fill:#1f77b4;stroke:#1f77b4;" x="90.065455" xlink:href="#mee543c0987" y="54.702586"/>
     <use style="fill:#1f77b4;stroke:#1f77b4;" x="93.312" xlink:href="#mee543c0987" y="55.516389"/>
     <use style="fill:#1f77b4;stroke:#1f77b4;" x="96.558545" xlink:href="#mee543c0987" y="56.520986"/>
     <use style="fill:#1f77b4;stroke:#1f77b4;" x="99.805091" xlink:href="#mee543c0987" y="57.643893"/>
     <use style="fill:#1f77b4;stroke:#1f77b4;" x="103.051636" xlink:href="#mee543c0987" y="58.797677"/>
     <use style="fill:#1f77b4;stroke:#1f77b4;" x="106.298182" xlink:href="#mee543c0987" y="59.905023"/>
     <use style="fill:#1f77b4;stroke:#1f77b4;" x="109.544727" xlink:href="#mee543c0987" y="60.916297"/>
     <use style="fill:#1f77b4;stroke:#1f77b4;" x="112.791273" xlink:href="#mee543c0987" y="61.815652"/>
     <use style="fill:#1f77b4;stroke:#1f77b4;" x="116.037818" xlink:href="#mee543c0987" y="62.617407"/>
     <use style="fill:#1f77b4;stroke:#1f77b4;" x="119.284364" xlink:href="#mee543c0987" y="63.356505"/>
     <use style="fill:#1f77b4;stroke:#1f77b4;" x="122.530909" xlink:href="#mee543c0987" y="64.078158"/>
     <use style="fill:#1f77b4;stroke:#1f77b4;" x="125.777455" xlink:href="#mee543c0987" y="64.834372"/>
     <use style="fill:#1f77b4;stroke:#1f77b4;" x="129.024" xlink:href="#mee543c0987" y="65.695504"/>
     <use style="fill:#1f77b4;stroke:#1f77b4;" x="132.270545" xlink:href="#mee543c0987" y="66.776767"/>
     <use style="fill:#1f77b4;stroke:#1f77b4;" x="135.517091" xlink:href="#mee543c0987" y="68.261989"/>
     <use style="fill:#1f77b4;stroke:#1f77b4;" x="138.763636" xlink:href="#mee543c0987" y="70.39319"/>
     <use style="fill:#1f77b4;stroke:#1f77b4;" x="142.010182" xlink:href="#mee543c0987" y="73.405477"/>
     <use style="fill:#1f77b4;stroke:#1f77b4;" x="145.256727" xlink:href="#mee543c0987" y="77.42732"/>
     <use style="fill:#1f77b4;stroke:#1f77b4;" x="148.503273" xlink:href="#mee543c0987" y="82.406081"/>
     <use style="fill:#1f77b4;stroke:#1f77b4;" x="151.749818" xlink:href="#mee543c0987" y="88.113807"/>
     <use style="fill:#1f77b4;stroke:#1f77b4;" x="154.996364" xlink:href="#mee543c0987" y="94.234226"/>
     <use style="fill:#1f77b4;stroke:#1f77b4;" x="158.242909" xlink:href="#mee543c0987" y="100.478137"/>
     <use style="fill:#1f77b4;stroke:#1f77b4;" x="161.489455" xlink:href="#mee543c0987" y="106.66795"/>
     <use style="fill:#1f77b4;stroke:#1f77b4;" x="164.736" xlink:href="#mee543c0987" y="112.767411"/>
     <use style="fill:#1f77b4;stroke:#1f77b4;" x="167.982545" xlink:href="#mee543c0987" y="118.86982"/>
     <use style="fill:#1f77b4;stroke:#1f77b4;" x="171.229091" xlink:href="#mee543c0987" y="125.171579"/>
     <use style="fill:#1f77b4;stroke:#1f77b4;" x="174.475636" xlink:href="#mee543c0987" y="131.950315"/>
     <use style="fill:#1f77b4;stroke:#1f77b4;" x="177.722182" xlink:href="#mee543c0987" y="139.551423"/>
     <use style="fill:#1f77b4;stroke:#1f77b4;" x="180.968727" xlink:href="#mee543c0987" y="148.37273"/>
     <use style="fill:#1f77b4;stroke:#1f77b4;" x="184.215273" xlink:href="#mee543c0987" y="158.828189"/>
     <use style="fill:#1f77b4;stroke:#1f77b4;" x="187.461818" xlink:href="#mee543c0987" y="171.272285"/>
     <use style="fill:#1f77b4;stroke:#1f77b4;" x="190.708364" xlink:href="#mee543c0987" y="185.882039"/>
     <use style="fill:#1f77b4;stroke:#1f77b4;" x="193.954909" xlink:href="#mee543c0987" y="202.522175"/>
     <use style="fill:#1f77b4;stroke:#1f77b4;" x="197.201455" xlink:href="#mee543c0987" y="220.646331"/>
     <use style="fill:#1f77b4;stroke:#1f77b4;" x="200.448" xlink:href="#mee543c0987" y="239.287182"/>
     <use style="fill:#1f77b4;stroke:#1f77b4;" x="203.694545" xlink:href="#mee543c0987" y="257.150088"/>
     <use style="fill:#1f77b4;stroke:#1f77b4;" x="206.941091" xlink:href="#mee543c0987" y="272.783344"/>
     <use style="fill:#1f77b4;stroke:#1f77b4;" x="210.187636" xlink:href="#mee543c0987" y="284.820829"/>
     <use style="fill:#1f77b4;stroke:#1f77b4;" x="213.434182" xlink:href="#mee543c0987" y="292.369734"/>
     <use style="fill:#1f77b4;stroke:#1f77b4;" x="216.680727" xlink:href="#mee543c0987" y="295.488"/>
     <use style="fill:#1f77b4;stroke:#1f77b4;" x="219.927273" xlink:href="#mee543c0987" y="295.260894"/>
     <use style="fill:#1f77b4;stroke:#1f77b4;" x="223.173818" xlink:href="#mee543c0987" y="293.20226"/>
     <use style="fill:#1f77b4;stroke:#1f77b4;" x="226.420364" xlink:href="#mee543c0987" y="290.598345"/>
     <use style="fill:#1f77b4;stroke:#1f77b4;" x="229.666909" xlink:href="#mee543c0987" y="288.29081"/>
     <use style="fill:#1f77b4;stroke:#1f77b4;" x="232.913455" xlink:href="#mee543c0987" y="286.751609"/>
     <use style="fill:#1f77b4;stroke:#1f77b4;" x="236.16" xlink:href="#mee543c0987" y="286.207756"/>
     <use style="fill:#1f77b4;stroke:#1f77b4;" x="239.406545" xlink:href="#mee543c0987" y="286.723792"/>
     <use style="fill:#1f77b4;stroke:#1f77b4;" x="242.653091" xlink:href="#mee543c0987" y="288.229591"/>
     <use style="fill:#1f77b4;stroke:#1f77b4;" x="245.899636" xlink:href="#mee543c0987" y="290.495565"/>
     <use style="fill:#1f77b4;stroke:#1f77b4;" x="249.146182" xlink:href="#mee543c0987" y="293.054658"/>
     <use style="fill:#1f77b4;stroke:#1f77b4;" x="252.392727" xlink:href="#mee543c0987" y="295.08416"/>
     <use style="fill:#1f77b4;stroke:#1f77b4;" x="255.639273" xlink:href="#mee543c0987" y="295.335207"/>
     <use style="fill:#1f77b4;stroke:#1f77b4;" x="258.885818" xlink:href="#mee543c0987" y="292.337128"/>
     <use style="fill:#1f77b4;stroke:#1f77b4;" x="262.132364" xlink:href="#mee543c0987" y="285.018667"/>
     <use style="fill:#1f77b4;stroke:#1f77b4;" x="265.378909" xlink:href="#mee543c0987" y="273.28976"/>
     <use style="fill:#1f77b4;stroke:#1f77b4;" x="268.625455" xlink:href="#mee543c0987" y="257.988029"/>
     <use style="fill:#1f77b4;stroke:#1f77b4;" x="271.872" xlink:href="#mee543c0987" y="240.422371"/>
     <use style="fill:#1f77b4;stroke:#1f77b4;" x="275.118545" xlink:href="#mee543c0987" y="221.988246"/>
     <use style="fill:#1f77b4;stroke:#1f77b4;" x="278.365091" xlink:href="#mee543c0987" y="203.926931"/>
     <use style="fill:#1f77b4;stroke:#1f77b4;" x="281.611636" xlink:href="#mee543c0987" y="187.16307"/>
     <use style="fill:#1f77b4;stroke:#1f77b4;" x="284.858182" xlink:href="#mee543c0987" y="172.219989"/>
     <use style="fill:#1f77b4;stroke:#1f77b4;" x="288.104727" xlink:href="#mee543c0987" y="159.233301"/>
     <use style="fill:#1f77b4;stroke:#1f77b4;" x="291.351273" xlink:href="#mee543c0987" y="148.046434"/>
     <use style="fill:#1f77b4;stroke:#1f77b4;" x="294.597818" xlink:href="#mee543c0987" y="138.339521"/>
     <use style="fill:#1f77b4;stroke:#1f77b4;" x="297.844364" xlink:href="#mee543c0987" y="129.745398"/>
     <use style="fill:#1f77b4;stroke:#1f77b4;" x="301.090909" xlink:href="#mee543c0987" y="121.92991"/>
     <use style="fill:#1f77b4;stroke:#1f77b4;" x="304.337455" xlink:href="#mee543c0987" y="114.635221"/>
     <use style="fill:#1f77b4;stroke:#1f77b4;" x="307.584" xlink:href="#mee543c0987" y="107.695008"/>
     <use style="fill:#1f77b4;stroke:#1f77b4;" x="310.830545" xlink:href="#mee543c0987" y="101.032338"/>
     <use style="fill:#1f77b4;stroke:#1f77b4;" x="314.077091" xlink:href="#mee543c0987" y="94.649808"/>
     <use style="fill:#1f77b4;stroke:#1f77b4;" x="317.323636" xlink:href="#mee543c0987" y="88.618647"/>
     <use style="fill:#1f77b4;stroke:#1f77b4;" x="320.570182" xlink:href="#mee543c0987" y="83.067745"/>
     <use style="fill:#1f77b4;stroke:#1f77b4;" x="323.816727" xlink:href="#mee543c0987" y="78.165193"/>
     <use style="fill:#1f77b4;stroke:#1f77b4;" x="327.063273" xlink:href="#mee543c0987" y="74.080178"/>
     <use style="fill:#1f77b4;stroke:#1f77b4;" x="330.309818" xlink:href="#mee543c0987" y="70.922553"/>
     <use style="fill:#1f77b4;stroke:#1f77b4;" x="333.556364" xlink:href="#mee543c0987" y="68.681304"/>
     <use style="fill:#1f77b4;stroke:#1f77b4;" x="336.802909" xlink:href="#mee543c0987" y="67.200573"/>
     <use style="fill:#1f77b4;stroke:#1f77b4;" x="340.049455" xlink:href="#mee543c0987" y="66.217762"/>
     <use style="fill:#1f77b4;stroke:#1f77b4;" x="343.296" xlink:href="#mee543c0987" y="65.448094"/>
     <use style="fill:#1f77b4;stroke:#1f77b4;" x="346.542545" xlink:href="#mee543c0987" y="64.669802"/>
     <use style="fill:#1f77b4;stroke:#1f77b4;" x="349.789091" xlink:href="#mee543c0987" y="63.769396"/>
     <use style="fill:#1f77b4;stroke:#1f77b4;" x="353.035636" xlink:href="#mee543c0987" y="62.737008"/>
     <use style="fill:#1f77b4;stroke:#1f77b4;" x="356.282182" xlink:href="#mee543c0987" y="61.629257"/>
     <use style="fill:#1f77b4;stroke:#1f77b4;" x="359.528727" xlink:href="#mee543c0987" y="60.525467"/>
     <use style="fill:#1f77b4;stroke:#1f77b4;" x="362.775273" xlink:href="#mee543c0987" y="59.495634"/>
     <use style="fill:#1f77b4;stroke:#1f77b4;" x="366.021818" xlink:href="#mee543c0987" y="58.586194"/>
     <use style="fill:#1f77b4;stroke:#1f77b4;" x="369.268364" xlink:href="#mee543c0987" y="57.819569"/>
     <use style="fill:#1f77b4;stroke:#1f77b4;" x="372.514909" xlink:href="#mee543c0987" y="57.198625"/>
     <use style="fill:#1f77b4;stroke:#1f77b4;" x="375.761455" xlink:href="#mee543c0987" y="56.70855"/>
     <use style="fill:#1f77b4;stroke:#1f77b4;" x="379.008" xlink:href="#mee543c0987" y="56.315375"/>
     <use style="fill:#1f77b4;stroke:#1f77b4;" x="382.254545" xlink:href="#mee543c0987" y="55.96801"/>
     <use style="fill:#1f77b4;stroke:#1f77b4;" x="385.501091" xlink:href="#mee543c0987" y="55.61176"/>
     <use style="fill:#1f77b4;stroke:#1f77b4;" x="388.747636" xlink:href="#mee543c0987" y="55.211905"/>
     <use style="fill:#1f77b4;stroke:#1f77b4;" x="391.994182" xlink:href="#mee543c0987" y="54.773035"/>
     <use style="fill:#1f77b4;stroke:#1f77b4;" x="395.240727" xlink:href="#mee543c0987" y="54.337969"/>
     <use style="fill:#1f77b4;stroke:#1f77b4;" x="398.487273" xlink:href="#mee543c0987" y="53.964964"/>
    </g>
   </g>
   <g id="patch_3">
    <path d="M 57.6 307.584 
L 57.6 41.472 
" style="fill:none;stroke:#000000;stroke-linecap:square;stroke-linejoin:miter;stroke-width:0.8;"/>
   </g>
   <g id="patch_4">
    <path d="M 414.72 307.584 
L 414.72 41.472 
" style="fill:none;stroke:#000000;stroke-linecap:square;stroke-linejoin:miter;stroke-width:0.8;"/>
   </g>
   <g id="patch_5">
    <path d="M 57.6 307.584 
L 414.72 307.584 
" style="fill:none;stroke:#000000;stroke-linecap:square;stroke-linejoin:miter;stroke-width:0.8;"/>
   </g>
   <g id="patch_6">
    <path d="M 57.6 41.472 
L 414.72 41.472 
" style="fill:none;stroke:#000000;stroke-linecap:square;stroke-linejoin:miter;stroke-width:0.8;"/>
   </g>
  </g>
 </g>
 <defs>
  <clipPath id="pbcc53217b0">
   <rect height="266.112" width="357.12" x="57.6" y="41.472"/>
  </clipPath>
 </defs>
</svg>
